<svg id="_123.rectangle" data-name="123.rectangle" xmlns="http://www.w3.org/2000/svg" width="44.829" height="35" viewBox="0 0 44.829 35">
  <rect id="Rectangle_125" data-name="Rectangle 125" width="44.829" height="35" opacity="0"/>
  <path id="Path_41" data-name="Path 41" d="M5.97,35h32.89a6.124,6.124,0,0,0,4.487-1.473,5.952,5.952,0,0,0,1.483-4.4V5.894a5.986,5.986,0,0,0-1.483-4.411A6.1,6.1,0,0,0,38.859,0H5.97A6.129,6.129,0,0,0,1.492,1.473,5.956,5.956,0,0,0,0,5.894V29.125a5.929,5.929,0,0,0,1.492,4.4A6.129,6.129,0,0,0,5.97,35Zm.038-3.061a2.982,2.982,0,0,1-2.186-.751,3.008,3.008,0,0,1-.76-2.234V6.065a3.042,3.042,0,0,1,.76-2.243,2.959,2.959,0,0,1,2.186-.76H38.821A2.966,2.966,0,0,1,41,3.821a3.019,3.019,0,0,1,.77,2.243v22.89a2.663,2.663,0,0,1-2.947,2.985Zm5.19-6.673a1.237,1.237,0,0,0,.97-.38,1.506,1.506,0,0,0,.342-1.046V11.008a1.478,1.478,0,0,0-.361-1.074,1.342,1.342,0,0,0-1.008-.371,2.268,2.268,0,0,0-.837.143,4.88,4.88,0,0,0-.894.5L6.369,12.262a1.043,1.043,0,0,0-.494.894.945.945,0,0,0,.266.665.831.831,0,0,0,.627.285,1.135,1.135,0,0,0,.361-.057,2.135,2.135,0,0,0,.475-.266l2.167-1.426h.152V23.84a1.514,1.514,0,0,0,.342,1.036A1.176,1.176,0,0,0,11.2,25.266Zm5.418-.228h8.536a1.07,1.07,0,0,0,.789-.314,1.093,1.093,0,0,0,.314-.808,1.038,1.038,0,0,0-.314-.779,1.087,1.087,0,0,0-.789-.3H19.068v-.076L23,18.536a18.14,18.14,0,0,0,1.816-2.281,4.363,4.363,0,0,0,.713-2.452,3.829,3.829,0,0,0-1.4-3.089,5.6,5.6,0,0,0-3.717-1.169,5.541,5.541,0,0,0-3.175.951,4.216,4.216,0,0,0-1.806,2.4,2.124,2.124,0,0,0-.076.342,2.61,2.61,0,0,0-.019.323,1.066,1.066,0,0,0,.295.789,1.092,1.092,0,0,0,.808.295,1.017,1.017,0,0,0,.7-.238,2.8,2.8,0,0,0,.494-.6,3.957,3.957,0,0,1,1-1.435,2.642,2.642,0,0,1,1.892-.656,2.767,2.767,0,0,1,1.882.627,2.084,2.084,0,0,1,.722,1.654,2.658,2.658,0,0,1-.618,1.663q-.618.789-1.34,1.568l-5.323,5.722a1.408,1.408,0,0,0-.437.989,1.046,1.046,0,0,0,.323.8A1.225,1.225,0,0,0,16.616,25.038Zm16.464.247a6.531,6.531,0,0,0,4.144-1.236A3.93,3.93,0,0,0,38.8,20.8a3.542,3.542,0,0,0-.979-2.51,3.805,3.805,0,0,0-2.481-1.2v-.038a3.391,3.391,0,0,0,2.082-1.217,3.592,3.592,0,0,0-.58-5.181,5.663,5.663,0,0,0-3.631-1.131,6.306,6.306,0,0,0-3.422.884,3.722,3.722,0,0,0-1.749,2.367q-.019.19-.038.323a2.5,2.5,0,0,0-.019.342,1.039,1.039,0,0,0,.314.779,1.138,1.138,0,0,0,.827.3,1.118,1.118,0,0,0,1.141-.856A2.546,2.546,0,0,1,31.3,12.2a3.255,3.255,0,0,1,1.873-.523,3,3,0,0,1,1.93.57,1.889,1.889,0,0,1,.713,1.559,2.118,2.118,0,0,1-.77,1.673,2.873,2.873,0,0,1-1.949.665H32.053a1.011,1.011,0,0,0-.732.285.986.986,0,0,0-.295.741,1.017,1.017,0,0,0,.295.751.993.993,0,0,0,.732.295h1.16a3.524,3.524,0,0,1,2.253.684,2.19,2.19,0,0,1,.865,1.806,2.137,2.137,0,0,1-.884,1.768,3.7,3.7,0,0,1-2.329.684,3.63,3.63,0,0,1-2-.523,2.74,2.74,0,0,1-1.141-1.492,1.187,1.187,0,0,0-1.16-.837,1.111,1.111,0,0,0-.837.314,1.138,1.138,0,0,0-.3.827,3.6,3.6,0,0,0,.057.57,3.289,3.289,0,0,0,.97,1.7,5.356,5.356,0,0,0,1.9,1.15A7.123,7.123,0,0,0,33.08,25.285Z"/>
</svg>
