<svg id="align.horizontal.right.fill" xmlns="http://www.w3.org/2000/svg" width="35" height="36.056" viewBox="0 0 35 36.056">
  <rect id="Rectangle_256" data-name="Rectangle 256" width="35" height="36.056" opacity="0"/>
  <path id="Path_99" data-name="Path 99" d="M26.285,16.591a3.626,3.626,0,0,0,2.649-.893,3.489,3.489,0,0,0,.909-2.6V7.534a3.494,3.494,0,0,0-.909-2.594,3.607,3.607,0,0,0-2.649-.9H14.556a3.612,3.612,0,0,0-2.641.9A3.477,3.477,0,0,0,11,7.534V13.1a3.472,3.472,0,0,0,.917,2.6,3.631,3.631,0,0,0,2.641.893Zm0,15.395a3.607,3.607,0,0,0,2.649-.9,3.494,3.494,0,0,0,.909-2.594V22.929a3.489,3.489,0,0,0-.909-2.6,3.626,3.626,0,0,0-2.649-.893H3.557a3.631,3.631,0,0,0-2.641.893A3.472,3.472,0,0,0,0,22.929v5.561a3.476,3.476,0,0,0,.917,2.594,3.612,3.612,0,0,0,2.641.9ZM33.85,36.01a1.17,1.17,0,0,0,.8-.311.98.98,0,0,0,.35-.761V1.072a.98.98,0,0,0-.35-.761A1.17,1.17,0,0,0,33.85,0a1.142,1.142,0,0,0-.792.311.989.989,0,0,0-.342.761V34.938a.989.989,0,0,0,.342.761A1.142,1.142,0,0,0,33.85,36.01Z" fill="rgba(0,0,0,0.85)"/>
</svg>
