<svg id="calendar" xmlns="http://www.w3.org/2000/svg" width="32.442" height="30" viewBox="0 0 32.442 30">
  <rect id="Rectangle_374" data-name="Rectangle 374" width="32.442" height="30" fill="#c9ccbd" opacity="0"/>
  <path id="Path_163" data-name="Path 163" d="M5.111,29.987H27.347a5.219,5.219,0,0,0,3.825-1.261,5.12,5.12,0,0,0,1.27-3.785V5.066a5.12,5.12,0,0,0-1.27-3.785A5.219,5.219,0,0,0,27.347.02H5.111A5.248,5.248,0,0,0,1.278,1.281,5.1,5.1,0,0,0,0,5.066V24.941a5.1,5.1,0,0,0,1.278,3.785A5.248,5.248,0,0,0,5.111,29.987Zm-.244-2.621a2.264,2.264,0,0,1-1.66-.578,2.287,2.287,0,0,1-.586-1.7V9.737a2.287,2.287,0,0,1,.586-1.7,2.264,2.264,0,0,1,1.66-.578H27.558a2.288,2.288,0,0,1,1.677.578,2.287,2.287,0,0,1,.586,1.7v15.35a2.038,2.038,0,0,1-2.263,2.279Zm8.188-14.048h.96a.855.855,0,0,0,.594-.163.8.8,0,0,0,.171-.586v-.96a.765.765,0,0,0-.171-.578.887.887,0,0,0-.594-.155h-.96a.887.887,0,0,0-.594.155.765.765,0,0,0-.171.578v.96a.8.8,0,0,0,.171.586A.855.855,0,0,0,13.055,13.319Zm5.4,0h.96a.851.851,0,0,0,.6-.163.822.822,0,0,0,.163-.586v-.96a.79.79,0,0,0-.163-.578.883.883,0,0,0-.6-.155h-.96a.852.852,0,0,0-.586.155.79.79,0,0,0-.163.578v.96a.822.822,0,0,0,.163.586A.822.822,0,0,0,18.459,13.319Zm5.421,0h.944a.852.852,0,0,0,.6-.163.822.822,0,0,0,.163-.586v-.96a.79.79,0,0,0-.163-.578.883.883,0,0,0-.6-.155H23.88a.884.884,0,0,0-.6.155.791.791,0,0,0-.163.578v.96a.823.823,0,0,0,.163.586A.852.852,0,0,0,23.88,13.319ZM7.651,18.641h.96a.823.823,0,0,0,.586-.163.823.823,0,0,0,.163-.586v-.944a.819.819,0,0,0-.163-.594.853.853,0,0,0-.586-.155h-.96a.883.883,0,0,0-.6.155.819.819,0,0,0-.163.594v.944a.823.823,0,0,0,.163.586A.852.852,0,0,0,7.651,18.641Zm5.4,0h.96a.856.856,0,0,0,.594-.163.8.8,0,0,0,.171-.586v-.944a.792.792,0,0,0-.171-.594.887.887,0,0,0-.594-.155h-.96a.887.887,0,0,0-.594.155.792.792,0,0,0-.171.594v.944a.8.8,0,0,0,.171.586A.856.856,0,0,0,13.055,18.641Zm5.4,0h.96a.852.852,0,0,0,.6-.163.823.823,0,0,0,.163-.586v-.944a.819.819,0,0,0-.163-.594.883.883,0,0,0-.6-.155h-.96a.852.852,0,0,0-.586.155.819.819,0,0,0-.163.594v.944a.618.618,0,0,0,.749.749Zm5.421,0h.944a.852.852,0,0,0,.6-.163.823.823,0,0,0,.163-.586v-.944a.819.819,0,0,0-.163-.594.883.883,0,0,0-.6-.155H23.88a.884.884,0,0,0-.6.155.82.82,0,0,0-.163.594v.944a.823.823,0,0,0,.163.586A.852.852,0,0,0,23.88,18.641ZM7.651,23.964h.96A.853.853,0,0,0,9.2,23.81a.819.819,0,0,0,.163-.594v-.944a.819.819,0,0,0-.163-.594.853.853,0,0,0-.586-.155h-.96a.883.883,0,0,0-.6.155.819.819,0,0,0-.163.594v.944a.819.819,0,0,0,.163.594A.883.883,0,0,0,7.651,23.964Zm5.4,0h.96a.887.887,0,0,0,.594-.155.793.793,0,0,0,.171-.594v-.944a.792.792,0,0,0-.171-.594.887.887,0,0,0-.594-.155h-.96a.887.887,0,0,0-.594.155.792.792,0,0,0-.171.594v.944a.793.793,0,0,0,.171.594A.887.887,0,0,0,13.055,23.964Zm5.4,0h.96a.883.883,0,0,0,.6-.155.819.819,0,0,0,.163-.594v-.944a.819.819,0,0,0-.163-.594.883.883,0,0,0-.6-.155h-.96a.852.852,0,0,0-.586.155.819.819,0,0,0-.163.594v.944a.819.819,0,0,0,.163.594A.852.852,0,0,0,18.459,23.964Z" transform="translate(0 0.013)" fill="#c9ccbd"/>
</svg>
