<svg id="calendar" xmlns="http://www.w3.org/2000/svg" width="40" height="36.989" viewBox="0 0 40 36.989">
  <rect id="Rectangle_255" data-name="Rectangle 255" width="40" height="36.989" opacity="0"/>
  <path id="Path_98" data-name="Path 98" d="M6.3,36.969H33.718a6.435,6.435,0,0,0,4.717-1.555A6.313,6.313,0,0,0,40,30.747V6.241a6.313,6.313,0,0,0-1.565-4.666A6.434,6.434,0,0,0,33.718.02H6.3A6.471,6.471,0,0,0,1.576,1.575,6.288,6.288,0,0,0,0,6.241V30.747a6.288,6.288,0,0,0,1.576,4.666A6.471,6.471,0,0,0,6.3,36.969ZM6,33.738a2.792,2.792,0,0,1-2.047-.713,2.82,2.82,0,0,1-.723-2.1V12a2.82,2.82,0,0,1,.723-2.1A2.792,2.792,0,0,1,6,9.192H33.979a2.821,2.821,0,0,1,2.067.712,2.82,2.82,0,0,1,.722,2.1V30.928a2.513,2.513,0,0,1-2.79,2.81ZM16.1,16.417H17.28a1.055,1.055,0,0,0,.733-.2.981.981,0,0,0,.211-.723V14.31a.944.944,0,0,0-.211-.712,1.094,1.094,0,0,0-.733-.191H16.1a1.094,1.094,0,0,0-.733.191.944.944,0,0,0-.211.712v1.184a.981.981,0,0,0,.211.723A1.055,1.055,0,0,0,16.1,16.417Zm6.663,0h1.184a1.05,1.05,0,0,0,.743-.2,1.014,1.014,0,0,0,.2-.723V14.31a.975.975,0,0,0-.2-.712,1.089,1.089,0,0,0-.743-.191H22.76a1.051,1.051,0,0,0-.722.191.975.975,0,0,0-.2.712v1.184a1.014,1.014,0,0,0,.2.723A1.014,1.014,0,0,0,22.76,16.417Zm6.683,0h1.164a1.05,1.05,0,0,0,.743-.2,1.014,1.014,0,0,0,.2-.723V14.31a.975.975,0,0,0-.2-.712,1.089,1.089,0,0,0-.743-.191H29.443a1.09,1.09,0,0,0-.743.191.975.975,0,0,0-.2.712v1.184a1.015,1.015,0,0,0,.2.723A1.05,1.05,0,0,0,29.443,16.417ZM9.433,22.98h1.184a1.015,1.015,0,0,0,.723-.2,1.015,1.015,0,0,0,.2-.723V20.893a1.01,1.01,0,0,0-.2-.733,1.052,1.052,0,0,0-.723-.191H9.433a1.089,1.089,0,0,0-.743.191,1.01,1.01,0,0,0-.2.733v1.164a1.015,1.015,0,0,0,.2.723A1.05,1.05,0,0,0,9.433,22.98Zm6.663,0H17.28a1.055,1.055,0,0,0,.733-.2.981.981,0,0,0,.211-.723V20.893a.977.977,0,0,0-.211-.733,1.094,1.094,0,0,0-.733-.191H16.1a1.094,1.094,0,0,0-.733.191.977.977,0,0,0-.211.733v1.164a.981.981,0,0,0,.211.723A1.055,1.055,0,0,0,16.1,22.98Zm6.663,0h1.184a1.05,1.05,0,0,0,.743-.2,1.014,1.014,0,0,0,.2-.723V20.893a1.01,1.01,0,0,0-.2-.733,1.089,1.089,0,0,0-.743-.191H22.76a1.051,1.051,0,0,0-.722.191,1.01,1.01,0,0,0-.2.733v1.164a.762.762,0,0,0,.923.923Zm6.683,0h1.164a1.051,1.051,0,0,0,.743-.2,1.014,1.014,0,0,0,.2-.723V20.893a1.01,1.01,0,0,0-.2-.733,1.089,1.089,0,0,0-.743-.191H29.443a1.09,1.09,0,0,0-.743.191,1.01,1.01,0,0,0-.2.733v1.164a1.015,1.015,0,0,0,.2.723A1.051,1.051,0,0,0,29.443,22.98ZM9.433,29.543h1.184a1.051,1.051,0,0,0,.723-.191,1.01,1.01,0,0,0,.2-.733V27.455a1.01,1.01,0,0,0-.2-.732,1.051,1.051,0,0,0-.723-.191H9.433a1.089,1.089,0,0,0-.743.191,1.01,1.01,0,0,0-.2.732V28.62a1.01,1.01,0,0,0,.2.733A1.089,1.089,0,0,0,9.433,29.543Zm6.663,0H17.28a1.094,1.094,0,0,0,.733-.191.977.977,0,0,0,.211-.733V27.455a.977.977,0,0,0-.211-.732,1.094,1.094,0,0,0-.733-.191H16.1a1.094,1.094,0,0,0-.733.191.977.977,0,0,0-.211.732V28.62a.977.977,0,0,0,.211.733A1.094,1.094,0,0,0,16.1,29.543Zm6.663,0h1.184a1.089,1.089,0,0,0,.743-.191,1.01,1.01,0,0,0,.2-.733V27.455a1.01,1.01,0,0,0-.2-.732,1.089,1.089,0,0,0-.743-.191H22.76a1.051,1.051,0,0,0-.722.191,1.01,1.01,0,0,0-.2.732V28.62a1.01,1.01,0,0,0,.2.733A1.051,1.051,0,0,0,22.76,29.543Z" transform="translate(0 0.021)" fill="rgba(0,0,0,0.85)"/>
</svg>
