<svg id="camera" xmlns="http://www.w3.org/2000/svg" width="23.984" height="19.248" viewBox="0 0 23.984 19.248">
  <rect id="Rectangle_327" data-name="Rectangle 327" width="23.984" height="19.248" opacity="0"/>
  <path id="Path_139" data-name="Path 139" d="M3.066,18.623H20.918a3.151,3.151,0,0,0,2.295-.757,3.048,3.048,0,0,0,.771-2.27V5.371a3.034,3.034,0,0,0-.771-2.261,3.151,3.151,0,0,0-2.295-.757H18.125a2.673,2.673,0,0,1-.625-.059,1.094,1.094,0,0,1-.415-.2,3.533,3.533,0,0,1-.405-.386L15.9.83a2.641,2.641,0,0,0-.8-.615A2.746,2.746,0,0,0,13.906,0h-3.9A2.713,2.713,0,0,0,8.823.215,2.783,2.783,0,0,0,8.018.83l-.781.879a2.216,2.216,0,0,1-.6.5,1.933,1.933,0,0,1-.85.142H3.066a3.148,3.148,0,0,0-2.3.757A3.045,3.045,0,0,0,0,5.371V15.6a3.06,3.06,0,0,0,.767,2.27A3.149,3.149,0,0,0,3.066,18.623Zm.02-1.572a1.535,1.535,0,0,1-1.118-.386,1.534,1.534,0,0,1-.4-1.147V5.459a1.534,1.534,0,0,1,.4-1.147,1.535,1.535,0,0,1,1.118-.386h3.1a3.12,3.12,0,0,0,1.069-.151,2.019,2.019,0,0,0,.776-.562l.762-.859a2.641,2.641,0,0,1,.742-.625,2.306,2.306,0,0,1,.967-.156h2.92a2.307,2.307,0,0,1,.967.156,2.643,2.643,0,0,1,.742.625l.762.859a2.019,2.019,0,0,0,.776.562,3.12,3.12,0,0,0,1.069.151h3.154a1.552,1.552,0,0,1,1.123.386,1.523,1.523,0,0,1,.4,1.147V15.518a1.523,1.523,0,0,1-.4,1.147,1.552,1.552,0,0,1-1.123.386Zm8.906-1.406a5.246,5.246,0,0,0,2.07-.41A5.3,5.3,0,0,0,17.315,10.3a5.213,5.213,0,0,0-.713-2.7,5.343,5.343,0,0,0-1.924-1.924,5.2,5.2,0,0,0-2.686-.713A5.258,5.258,0,0,0,8.218,6.523a5.422,5.422,0,0,0-1.143,1.7,5.444,5.444,0,0,0,0,4.17,5.422,5.422,0,0,0,1.143,1.7,5.257,5.257,0,0,0,3.774,1.553Zm0-1.484a3.733,3.733,0,0,1-1.938-.518,3.945,3.945,0,0,1-1.4-1.392,3.876,3.876,0,0,1,0-3.887,3.985,3.985,0,0,1,1.4-1.4,3.857,3.857,0,0,1,3.877,0,3.945,3.945,0,0,1,1.392,1.4,3.908,3.908,0,0,1,0,3.887,3.905,3.905,0,0,1-1.392,1.392A3.733,3.733,0,0,1,11.992,14.16Zm5.723-7.451a1.2,1.2,0,0,0,1.23,1.211,1.179,1.179,0,0,0,.85-.352,1.191,1.191,0,0,0,0-1.709,1.163,1.163,0,0,0-.85-.361,1.185,1.185,0,0,0-.869.361A1.163,1.163,0,0,0,17.715,6.709Z" fill="rgba(0,0,0,0.5)"/>
</svg>
