<svg id="checklist" xmlns="http://www.w3.org/2000/svg" width="45" height="40.605" viewBox="0 0 45 40.605">
  <rect id="Rectangle_279" data-name="Rectangle 279" width="45" height="40.605" opacity="0"/>
  <path id="Path_115" data-name="Path 115" d="M8.651,17.331a8.248,8.248,0,0,0,4.325-1.174,9.08,9.08,0,0,0,3.141-3.131A8.2,8.2,0,0,0,17.3,8.7a8.247,8.247,0,0,0-1.184-4.335,9.137,9.137,0,0,0-3.141-3.151A8.2,8.2,0,0,0,8.651.029,8.247,8.247,0,0,0,4.315,1.214,9.024,9.024,0,0,0,1.174,4.365,8.3,8.3,0,0,0,0,8.7a8.2,8.2,0,0,0,1.184,4.325,9.051,9.051,0,0,0,3.151,3.131A8.264,8.264,0,0,0,8.651,17.331ZM7.627,13.337a.846.846,0,0,1-.552-.141,2.383,2.383,0,0,1-.452-.422l-2.248-2.71a1.2,1.2,0,0,1-.261-.783,1.027,1.027,0,0,1,.291-.743.93.93,0,0,1,.692-.3,1.016,1.016,0,0,1,.512.12,1.437,1.437,0,0,1,.411.381l1.566,1.987,3.573-5.74A1.041,1.041,0,0,1,12.8,4.706a.866.866,0,0,1,.311.662,1.561,1.561,0,0,1-.261.823L8.651,12.775A1.1,1.1,0,0,1,7.627,13.337ZM8.651,40.574a8.2,8.2,0,0,0,4.325-1.184,9.138,9.138,0,0,0,3.141-3.151,8.528,8.528,0,0,0,0-8.671,9.052,9.052,0,0,0-3.141-3.141,8.248,8.248,0,0,0-4.325-1.174,8.246,8.246,0,0,0-4.335,1.184,9.025,9.025,0,0,0-3.141,3.151A8.3,8.3,0,0,0,0,31.923a8.21,8.21,0,0,0,1.184,4.315,9.109,9.109,0,0,0,3.151,3.151A8.21,8.21,0,0,0,8.651,40.574Zm0-2.93A5.438,5.438,0,0,1,5.8,36.86a6,6,0,0,1-2.087-2.087,5.617,5.617,0,0,1,0-5.72A6,6,0,0,1,5.8,26.965a5.58,5.58,0,0,1,5.7,0,6,6,0,0,1,2.087,2.087,5.617,5.617,0,0,1,0,5.72A6,6,0,0,1,11.5,36.86,5.438,5.438,0,0,1,8.651,37.643ZM23.3,10.226H43.455a1.507,1.507,0,0,0,1.094-.442A1.457,1.457,0,0,0,45,8.7a1.434,1.434,0,0,0-.452-1.064,1.507,1.507,0,0,0-1.094-.442H23.3a1.474,1.474,0,0,0-1.084.442A1.45,1.45,0,0,0,21.777,8.7,1.508,1.508,0,0,0,23.3,10.226Zm0,23.2H43.455a1.507,1.507,0,0,0,1.094-.441A1.434,1.434,0,0,0,45,31.923a1.457,1.457,0,0,0-.452-1.084,1.507,1.507,0,0,0-1.094-.441H23.3a1.508,1.508,0,0,0-1.525,1.525,1.45,1.45,0,0,0,.441,1.064A1.474,1.474,0,0,0,23.3,33.428Z" transform="translate(0 0.031)" fill="rgba(0,0,0,0.85)"/>
</svg>
