<svg xmlns="http://www.w3.org/2000/svg" width="30" height="30" viewBox="0 0 30 30">
  <g id="Group_332" data-name="Group 332" transform="translate(-1670 -402)">
    <g id="Rectangle_393" data-name="Rectangle 393" transform="translate(1670 402)" fill="#fff" stroke="#707070" stroke-width="2">
      <rect width="30" height="30" rx="5" stroke="none"/>
      <rect x="1" y="1" width="28" height="28" rx="4" fill="none"/>
    </g>
    <g id="trash.fill" transform="translate(1676 405.75)">
      <rect id="Rectangle_397" data-name="Rectangle 397" width="18.006" height="22.561" opacity="0"/>
      <path id="Path_172" data-name="Path 172" d="M4.583,20.469h8.84A1.915,1.915,0,0,0,14.785,20a1.846,1.846,0,0,0,.535-1.329l.595-13.581h1.394a.664.664,0,0,0,.493-.209.687.687,0,0,0,.2-.5.7.7,0,0,0-.7-.7H.7A.669.669,0,0,0,.209,3.9.669.669,0,0,0,0,4.388a.679.679,0,0,0,.209.5A.669.669,0,0,0,.7,5.094H2.1L2.7,18.675A1.846,1.846,0,0,0,3.23,20,1.9,1.9,0,0,0,4.583,20.469Zm1.478-2.659a.59.59,0,0,1-.414-.149.515.515,0,0,1-.163-.4L5.2,7.139a.526.526,0,0,1,.158-.4.588.588,0,0,1,.428-.153.577.577,0,0,1,.4.149.534.534,0,0,1,.172.39l.279,10.132a.5.5,0,0,1-.149.4A.588.588,0,0,1,6.061,17.811Zm2.947,0a.621.621,0,0,1-.437-.153.512.512,0,0,1-.167-.4V7.139a.512.512,0,0,1,.167-.4.621.621,0,0,1,.437-.153.608.608,0,0,1,.428.153.512.512,0,0,1,.167.4V17.262a.512.512,0,0,1-.167.4A.608.608,0,0,1,9.008,17.811Zm2.937,0a.588.588,0,0,1-.428-.153.5.5,0,0,1-.149-.4l.279-10.123a.544.544,0,0,1,.172-.4.577.577,0,0,1,.4-.149.588.588,0,0,1,.428.153.526.526,0,0,1,.158.4l-.288,10.123a.515.515,0,0,1-.163.4A.59.59,0,0,1,11.945,17.811ZM4.824,3.988H6.507V2.361a.749.749,0,0,1,.223-.567.837.837,0,0,1,.6-.214h3.328a.837.837,0,0,1,.6.214.749.749,0,0,1,.223.567V3.988h1.673V2.268A2.17,2.17,0,0,0,12.517.609,2.465,2.465,0,0,0,10.755,0H7.232A2.465,2.465,0,0,0,5.471.609a2.17,2.17,0,0,0-.646,1.659Z" fill="#8e8e93"/>
    </g>
  </g>
</svg>
