<svg id="dot.circle.and.hand.point.up.left.fill" xmlns="http://www.w3.org/2000/svg" width="70" height="60.241" viewBox="0 0 70 60.241">
  <rect id="Rectangle_344" data-name="Rectangle 344" width="70" height="60.242" fill="#625e00" opacity="0"/>
  <path id="Path_147" data-name="Path 147" d="M27.153,54.305a26.852,26.852,0,0,0,5.737-.612,24.718,24.718,0,0,0,5.337-1.81L35.3,48.236a21.644,21.644,0,0,1-3.913,1.145,22.974,22.974,0,0,1-13.044-1.344,22.473,22.473,0,0,1-7.2-4.858A22.733,22.733,0,0,1,6.3,35.964a22.276,22.276,0,0,1-1.744-8.811A22.276,22.276,0,0,1,6.3,18.341,22.643,22.643,0,0,1,18.315,6.282a22.13,22.13,0,0,1,8.811-1.757A22.44,22.44,0,0,1,47.97,18.275a22.665,22.665,0,0,1,1.757,8.8,9.537,9.537,0,0,1,2.223-.12,12.122,12.122,0,0,1,2.329.359A26.26,26.26,0,0,0,52.2,16.784,27.735,27.735,0,0,0,37.694,2.143,26.13,26.13,0,0,0,27.153,0,26.14,26.14,0,0,0,16.664,2.13,27.553,27.553,0,0,0,8,8.013a27.869,27.869,0,0,0-5.87,8.665A26.046,26.046,0,0,0,0,27.153,26.045,26.045,0,0,0,2.13,37.628,27.882,27.882,0,0,0,16.678,52.176,26.044,26.044,0,0,0,27.153,54.305Zm.027-18.98a7.89,7.89,0,0,0,4.1-1.1,8.346,8.346,0,0,0,2.968-2.968,7.939,7.939,0,0,0,1.1-4.126,7.82,7.82,0,0,0-1.1-4.086,8.38,8.38,0,0,0-2.968-2.955,8.183,8.183,0,0,0-8.212,0A8.526,8.526,0,0,0,20.1,23.04a7.75,7.75,0,0,0-1.118,4.086A7.867,7.867,0,0,0,20.1,31.252,8.454,8.454,0,0,0,23.08,34.22,7.89,7.89,0,0,0,27.179,35.325ZM60.561,57.872q6.415-2.316,8.492-7.414t-.4-11.992L67.3,34.659a7.435,7.435,0,0,0-2.569-3.714,3.253,3.253,0,0,0-3.021-.6.656.656,0,0,0-.453.905l.612,1.677a1.377,1.377,0,0,1,.053.985.992.992,0,0,1-.506.532q-.932.319-1.358-.878l-.4-1.118a3.622,3.622,0,0,0-1.77-2.116,3.068,3.068,0,0,0-2.516-.12q-1.2.453-.825,1.437l.852,2.289a1.4,1.4,0,0,1,.067.972.841.841,0,0,1-.493.519q-.932.346-1.358-.825l-.772-2.129a3.5,3.5,0,0,0-1.81-2.236,3.313,3.313,0,0,0-2.476-.053q-1.171.426-.8,1.438l1.624,4.5a1.412,1.412,0,0,1,.053,1,.885.885,0,0,1-.506.519q-.9.319-1.358-.879L42.14,21.8a2.572,2.572,0,0,0-1.278-1.544,2.293,2.293,0,0,0-1.81-.106,2.354,2.354,0,0,0-1.384,1.264,2.488,2.488,0,0,0,.026,1.983l8.013,21.962a.882.882,0,0,1-.013.692.676.676,0,0,1-.413.373q-.506.213-1.118-.426l-5.377-5.8a2.618,2.618,0,0,0-1.238-.825,2.068,2.068,0,0,0-1.265.08,2.4,2.4,0,0,0-1.411,1.211,2.163,2.163,0,0,0-.08,1.664,3.245,3.245,0,0,0,.612,1.065l6.682,8.359q4.233,5.3,8.984,6.575A15.394,15.394,0,0,0,60.561,57.872Z" fill="#625e00"/>
</svg>
