<svg id="filemenu.and.selection" xmlns="http://www.w3.org/2000/svg" width="44.829" height="35" viewBox="0 0 44.829 35">
  <rect id="Rectangle_217" data-name="Rectangle 217" width="44.829" height="35" opacity="0"/>
  <path id="Path_90" data-name="Path 90" d="M9.7,9.582H25.78a1.129,1.129,0,0,0,.846-.342,1.155,1.155,0,0,0,.333-.836,1.123,1.123,0,0,0-.333-.827,1.146,1.146,0,0,0-.846-.333H9.7a1.146,1.146,0,0,0-.846.333,1.123,1.123,0,0,0-.333.827,1.155,1.155,0,0,0,.333.836A1.129,1.129,0,0,0,9.7,9.582Zm0,18.156H25.78a1.164,1.164,0,0,0,.846-.323,1.091,1.091,0,0,0,.333-.817,1.178,1.178,0,0,0-.333-.855,1.129,1.129,0,0,0-.846-.342H9.7a1.129,1.129,0,0,0-.846.342,1.178,1.178,0,0,0-.333.855,1.091,1.091,0,0,0,.333.817A1.164,1.164,0,0,0,9.7,27.738ZM5.97,35h32.89a6.124,6.124,0,0,0,4.487-1.473,5.952,5.952,0,0,0,1.483-4.4V5.894a5.986,5.986,0,0,0-1.483-4.411A6.1,6.1,0,0,0,38.859,0H5.97A6.129,6.129,0,0,0,1.492,1.473,5.956,5.956,0,0,0,0,5.894V29.125a5.929,5.929,0,0,0,1.492,4.4A6.129,6.129,0,0,0,5.97,35Zm.038-3.061a2.982,2.982,0,0,1-2.186-.751,3.008,3.008,0,0,1-.76-2.234V6.065a3.042,3.042,0,0,1,.76-2.243,2.959,2.959,0,0,1,2.186-.76H38.821A2.966,2.966,0,0,1,41,3.821a3.019,3.019,0,0,1,.77,2.243v22.89a2.663,2.663,0,0,1-2.947,2.985Zm2-9.962h28.84a2.434,2.434,0,0,0,1.844-.694,2.592,2.592,0,0,0,.665-1.873V15.551a2.592,2.592,0,0,0-.665-1.873,2.434,2.434,0,0,0-1.844-.694H8a2.434,2.434,0,0,0-1.844.694,2.592,2.592,0,0,0-.665,1.873v3.859a2.592,2.592,0,0,0,.665,1.873A2.434,2.434,0,0,0,8,21.977Zm1.711-3.308a1.153,1.153,0,0,1-.865-.342,1.178,1.178,0,0,1-.333-.856,1.1,1.1,0,0,1,.333-.808,1.17,1.17,0,0,1,.865-.333h9.354a1.146,1.146,0,0,1,.846.333,1.1,1.1,0,0,1,.333.808,1.178,1.178,0,0,1-.333.856,1.129,1.129,0,0,1-.846.342Z"/>
</svg>
