<svg xmlns="http://www.w3.org/2000/svg" width="55" height="15.557" viewBox="0 0 55 15.557">
  <g id="Group_258" data-name="Group 258" transform="translate(-11377 -3747)">
    <g id="circle.grid.2x1.right.filled" transform="translate(11377 3747)">
      <rect id="Rectangle_345" data-name="Rectangle 345" width="35" height="15.557" opacity="0"/>
      <path id="Path_148" data-name="Path 148" d="M7.772,15.544a7.475,7.475,0,0,0,3-.608,7.913,7.913,0,0,0,4.146-4.153,7.522,7.522,0,0,0,.608-3.011,7.475,7.475,0,0,0-.608-3A7.986,7.986,0,0,0,13.247,2.29,7.851,7.851,0,0,0,10.776.608a7.474,7.474,0,0,0-3-.608A7.555,7.555,0,0,0,4.747.608,7.894,7.894,0,0,0,.6,4.767a7.546,7.546,0,0,0-.6,3,7.594,7.594,0,0,0,.6,3.011A7.792,7.792,0,0,0,2.27,13.26a7.886,7.886,0,0,0,2.477,1.676A7.556,7.556,0,0,0,7.772,15.544Zm0-2.15a5.443,5.443,0,0,1-2.824-.754A5.723,5.723,0,0,1,2.911,10.6,5.442,5.442,0,0,1,2.15,7.772a5.407,5.407,0,0,1,.761-2.824A5.8,5.8,0,0,1,4.948,2.911,5.407,5.407,0,0,1,7.772,2.15a5.347,5.347,0,0,1,2.811.768,5.85,5.85,0,0,1,2.036,2.043,5.382,5.382,0,0,1,.761,2.811,5.417,5.417,0,0,1-.761,2.818,5.777,5.777,0,0,1-2.036,2.043A5.382,5.382,0,0,1,7.772,13.394Zm19.47,2.15a7.474,7.474,0,0,0,3-.608,7.99,7.99,0,0,0,2.477-1.676A7.738,7.738,0,0,0,34.4,10.783,7.593,7.593,0,0,0,35,7.772a7.545,7.545,0,0,0-.6-3A7.836,7.836,0,0,0,32.723,2.29,7.932,7.932,0,0,0,30.246.608a7.474,7.474,0,0,0-3-.608,7.555,7.555,0,0,0-3.025.608,7.894,7.894,0,0,0-4.146,4.16,7.547,7.547,0,0,0-.6,3,7.6,7.6,0,0,0,.6,3.011A7.793,7.793,0,0,0,21.74,13.26a7.887,7.887,0,0,0,2.477,1.676A7.555,7.555,0,0,0,27.242,15.544Z" fill="rgba(0,0,0,0.5)"/>
    </g>
    <g id="circle.grid.2x1.right.filled-2" data-name="circle.grid.2x1.right.filled" transform="translate(11432 3762.557) rotate(180)">
      <rect id="Rectangle_345-2" data-name="Rectangle 345" width="35" height="15.557" opacity="0"/>
      <path id="Path_148-2" data-name="Path 148" d="M7.772,15.544a7.475,7.475,0,0,0,3-.608,7.913,7.913,0,0,0,4.146-4.153,7.522,7.522,0,0,0,.608-3.011,7.475,7.475,0,0,0-.608-3A7.986,7.986,0,0,0,13.247,2.29,7.851,7.851,0,0,0,10.776.608a7.474,7.474,0,0,0-3-.608A7.555,7.555,0,0,0,4.747.608,7.894,7.894,0,0,0,.6,4.767a7.546,7.546,0,0,0-.6,3,7.594,7.594,0,0,0,.6,3.011A7.792,7.792,0,0,0,2.27,13.26a7.886,7.886,0,0,0,2.477,1.676A7.556,7.556,0,0,0,7.772,15.544Zm0-2.15a5.443,5.443,0,0,1-2.824-.754A5.723,5.723,0,0,1,2.911,10.6,5.442,5.442,0,0,1,2.15,7.772a5.407,5.407,0,0,1,.761-2.824A5.8,5.8,0,0,1,4.948,2.911,5.407,5.407,0,0,1,7.772,2.15a5.347,5.347,0,0,1,2.811.768,5.85,5.85,0,0,1,2.036,2.043,5.382,5.382,0,0,1,.761,2.811,5.417,5.417,0,0,1-.761,2.818,5.777,5.777,0,0,1-2.036,2.043A5.382,5.382,0,0,1,7.772,13.394Zm19.47,2.15a7.474,7.474,0,0,0,3-.608,7.99,7.99,0,0,0,2.477-1.676A7.738,7.738,0,0,0,34.4,10.783,7.593,7.593,0,0,0,35,7.772a7.545,7.545,0,0,0-.6-3A7.836,7.836,0,0,0,32.723,2.29,7.932,7.932,0,0,0,30.246.608a7.474,7.474,0,0,0-3-.608,7.555,7.555,0,0,0-3.025.608,7.894,7.894,0,0,0-4.146,4.16,7.547,7.547,0,0,0-.6,3,7.6,7.6,0,0,0,.6,3.011A7.793,7.793,0,0,0,21.74,13.26a7.887,7.887,0,0,0,2.477,1.676A7.555,7.555,0,0,0,27.242,15.544Z" fill="rgba(0,0,0,0.5)"/>
    </g>
  </g>
</svg>
