<svg xmlns="http://www.w3.org/2000/svg" width="406" height="406" viewBox="0 0 406 406">
  <g id="Group_337" data-name="Group 337" transform="translate(-11145 -283)">
    <g id="Rectangle_418" data-name="Rectangle 418" transform="translate(11145 283)" fill="#fff" stroke="#707070" stroke-width="1" stroke-dasharray="10">
      <rect width="406" height="406" stroke="none"/>
      <rect x="0.5" y="0.5" width="405" height="405" fill="none"/>
    </g>
    <g id="person.crop.square" transform="translate(11265.125 355.766)" opacity="0.27">
      <rect id="Rectangle_400" data-name="Rectangle 400" width="166.426" height="166.606" opacity="0"/>
      <path id="Path_175" data-name="Path 175" d="M28.386,166.445H138.04q14.193,0,21.289-7.006t7.1-21.018V28.043q0-14.012-7.1-21.018T138.04.02H28.386Q14.193.02,7.1,7.026T0,28.043V138.422q0,14.012,7.1,21.018T28.386,166.445Zm.181-14.554q-6.78,0-10.4-3.571T14.554,137.7V28.767q0-7.051,3.616-10.622t10.4-3.571H137.86q6.689,0,10.35,3.571t3.661,10.622V137.7q0,7.051-3.661,10.621t-10.35,3.571Zm-7.5,5.334h124.39a48.236,48.236,0,0,0-7.5-17.538,55.5,55.5,0,0,0-13.785-13.921,66.075,66.075,0,0,0-18.668-9.13,74.037,74.037,0,0,0-22.238-3.255,73.722,73.722,0,0,0-22.148,3.255,66.739,66.739,0,0,0-18.713,9.13,55.187,55.187,0,0,0-13.831,13.921A48.227,48.227,0,0,0,21.063,157.225Zm62.2-58.941a28.012,28.012,0,0,0,15.594-4.34,32.01,32.01,0,0,0,11.165-12.159,36.139,36.139,0,0,0,4.158-17.4A33.808,33.808,0,0,0,110.017,47.8,33.113,33.113,0,0,0,98.852,35.727a29.316,29.316,0,0,0-31.278,0A32.735,32.735,0,0,0,56.455,47.8a34.1,34.1,0,0,0-4.113,16.588,36.671,36.671,0,0,0,4.2,17.311A31.958,31.958,0,0,0,67.619,93.764,29.1,29.1,0,0,0,83.258,98.284Z" transform="translate(0 0.161)" fill="rgba(0,0,0,0.25)"/>
    </g>
  </g>
</svg>
