<svg xmlns="http://www.w3.org/2000/svg" width="60" height="60.065" viewBox="0 0 60 60.065">
  <g id="Group_260" data-name="Group 260" transform="translate(-704 -543)">
    <g id="checkmark.square" transform="translate(704 543)">
      <rect id="Rectangle_341" data-name="Rectangle 341" width="60" height="60.065" fill="#625e00" opacity="0"/>
      <path id="Path_145" data-name="Path 145" d="M10.234,60.019H49.766q5.117,0,7.675-2.526T60,49.916V10.123q0-5.052-2.558-7.577T49.766.02H10.234Q5.117.02,2.558,2.545T0,10.123V49.916q0,5.052,2.558,7.577T10.234,60.019Zm.065-5.247a5.111,5.111,0,0,1-3.748-1.288,5.157,5.157,0,0,1-1.3-3.829V10.383a5.157,5.157,0,0,1,1.3-3.829A5.111,5.111,0,0,1,10.3,5.267H49.7a5.122,5.122,0,0,1,3.731,1.287,5.119,5.119,0,0,1,1.32,3.829V49.656A4.566,4.566,0,0,1,49.7,54.772Zm16.165-9.354a3.011,3.011,0,0,0,2.64-1.5L44,20.454a7.8,7.8,0,0,0,.538-.994,2.613,2.613,0,0,0,.245-1.092,2.1,2.1,0,0,0-.815-1.727,2.847,2.847,0,0,0-1.825-.652,2.657,2.657,0,0,0-2.281,1.467L26.334,39.161l-6.42-8.311a3.406,3.406,0,0,0-1.157-1.059,2.833,2.833,0,0,0-1.255-.277,2.368,2.368,0,0,0-1.776.766,2.568,2.568,0,0,0-.733,1.841,3.38,3.38,0,0,0,.75,2.021l7.952,9.777a4.254,4.254,0,0,0,1.287,1.141A3.086,3.086,0,0,0,26.464,45.419Z" transform="translate(0 0.046)" fill="#625e00"/>
    </g>
  </g>
</svg>
