<svg xmlns="http://www.w3.org/2000/svg" width="94.25" height="26.669" viewBox="0 0 94.25 26.669">
  <g id="Group_261" data-name="Group 261" transform="translate(-1060.875 -548.581)">
    <g id="Group_249" data-name="Group 249" transform="translate(-61.125 14.581)">
      <g id="circle.grid.2x1.right.filled" transform="translate(1122 534)">
        <rect id="Rectangle_345" data-name="Rectangle 345" width="60" height="26.669" fill="#625e00" opacity="0"/>
        <path id="Path_148" data-name="Path 148" d="M13.323,26.646A12.814,12.814,0,0,0,18.474,25.6a13.565,13.565,0,0,0,7.108-7.12,12.9,12.9,0,0,0,1.042-5.162,12.814,12.814,0,0,0-1.042-5.151,13.691,13.691,0,0,0-2.873-4.246,13.459,13.459,0,0,0-4.235-2.884A12.813,12.813,0,0,0,13.323,0,12.952,12.952,0,0,0,8.138,1.042,13.532,13.532,0,0,0,1.03,8.172,12.936,12.936,0,0,0,0,13.323a13.018,13.018,0,0,0,1.03,5.162,13.358,13.358,0,0,0,2.862,4.246A13.519,13.519,0,0,0,8.138,25.6,12.952,12.952,0,0,0,13.323,26.646Zm0-3.686a9.331,9.331,0,0,1-4.842-1.293A9.81,9.81,0,0,1,4.99,18.176a9.329,9.329,0,0,1-1.3-4.853,9.269,9.269,0,0,1,1.3-4.842A9.934,9.934,0,0,1,8.481,4.99a9.269,9.269,0,0,1,4.842-1.3A9.166,9.166,0,0,1,18.142,5a10.029,10.029,0,0,1,3.491,3.5,9.227,9.227,0,0,1,1.3,4.819,9.287,9.287,0,0,1-1.3,4.83,9.9,9.9,0,0,1-3.491,3.5A9.227,9.227,0,0,1,13.323,22.961ZM46.7,26.646A12.813,12.813,0,0,0,51.85,25.6,13.7,13.7,0,0,0,56.1,22.732a13.264,13.264,0,0,0,2.873-4.246A13.017,13.017,0,0,0,60,13.323a12.935,12.935,0,0,0-1.03-5.151A13.434,13.434,0,0,0,56.1,3.926,13.6,13.6,0,0,0,51.85,1.042,12.812,12.812,0,0,0,46.7,0a12.951,12.951,0,0,0-5.185,1.042,13.532,13.532,0,0,0-7.108,7.131,12.937,12.937,0,0,0-1.03,5.151,13.02,13.02,0,0,0,1.03,5.162,13.36,13.36,0,0,0,2.861,4.246A13.521,13.521,0,0,0,41.515,25.6,12.952,12.952,0,0,0,46.7,26.646Z" fill="#625e00"/>
      </g>
      <g id="circle.grid.2x1.right.filled-2" data-name="circle.grid.2x1.right.filled" transform="translate(1216.25 560.669) rotate(180)">
        <rect id="Rectangle_345-2" data-name="Rectangle 345" width="60" height="26.669" fill="#625e00" opacity="0"/>
        <path id="Path_148-2" data-name="Path 148" d="M13.323,26.646A12.814,12.814,0,0,0,18.474,25.6a13.565,13.565,0,0,0,7.108-7.12,12.9,12.9,0,0,0,1.042-5.162,12.814,12.814,0,0,0-1.042-5.151,13.691,13.691,0,0,0-2.873-4.246,13.459,13.459,0,0,0-4.235-2.884A12.813,12.813,0,0,0,13.323,0,12.952,12.952,0,0,0,8.138,1.042,13.532,13.532,0,0,0,1.03,8.172,12.936,12.936,0,0,0,0,13.323a13.018,13.018,0,0,0,1.03,5.162,13.358,13.358,0,0,0,2.862,4.246A13.519,13.519,0,0,0,8.138,25.6,12.952,12.952,0,0,0,13.323,26.646Zm0-3.686a9.331,9.331,0,0,1-4.842-1.293A9.81,9.81,0,0,1,4.99,18.176a9.329,9.329,0,0,1-1.3-4.853,9.269,9.269,0,0,1,1.3-4.842A9.934,9.934,0,0,1,8.481,4.99a9.269,9.269,0,0,1,4.842-1.3A9.166,9.166,0,0,1,18.142,5a10.029,10.029,0,0,1,3.491,3.5,9.227,9.227,0,0,1,1.3,4.819,9.287,9.287,0,0,1-1.3,4.83,9.9,9.9,0,0,1-3.491,3.5A9.227,9.227,0,0,1,13.323,22.961ZM46.7,26.646A12.813,12.813,0,0,0,51.85,25.6,13.7,13.7,0,0,0,56.1,22.732a13.264,13.264,0,0,0,2.873-4.246A13.017,13.017,0,0,0,60,13.323a12.935,12.935,0,0,0-1.03-5.151A13.434,13.434,0,0,0,56.1,3.926,13.6,13.6,0,0,0,51.85,1.042,12.812,12.812,0,0,0,46.7,0a12.951,12.951,0,0,0-5.185,1.042,13.532,13.532,0,0,0-7.108,7.131,12.937,12.937,0,0,0-1.03,5.151,13.02,13.02,0,0,0,1.03,5.162,13.36,13.36,0,0,0,2.861,4.246A13.521,13.521,0,0,0,41.515,25.6,12.952,12.952,0,0,0,46.7,26.646Z" fill="#625e00"/>
      </g>
    </g>
  </g>
</svg>
