<svg xmlns="http://www.w3.org/2000/svg" width="60" height="64.088" viewBox="0 0 60 64.088">
  <g id="Group_257" data-name="Group 257" transform="translate(-704 -301.698)">
    <g id="square.and.pencil" transform="translate(704 301.698)">
      <rect id="Rectangle_342" data-name="Rectangle 342" width="60" height="64.088" transform="translate(0 0)" fill="#625e00" opacity="0"/>
      <path id="Path_146" data-name="Path 146" d="M9.522,59.9h35.6a8.4,8.4,0,0,0,6.353-2.35q2.259-2.35,2.259-7.051V18.079l-4.883,4.882V50.255a5.04,5.04,0,0,1-1.122,3.563,3.535,3.535,0,0,1-2.669,1.2H9.613a4.811,4.811,0,0,1-3.5-1.2,4.764,4.764,0,0,1-1.228-3.563V15.835a4.816,4.816,0,0,1,1.228-3.578,4.774,4.774,0,0,1,3.5-1.213H37.24l4.883-4.882H9.522q-4.731,0-7.127,2.35T0,15.562V50.5q0,4.7,2.4,7.051T9.522,59.9ZM20.561,40.247l5.914-2.577L54.8,9.376,50.644,5.282,22.35,33.576l-2.729,5.7a.663.663,0,0,0,.167.774A.636.636,0,0,0,20.561,40.247ZM57.043,7.162l2.184-2.244A2.665,2.665,0,0,0,60,3.113a2.3,2.3,0,0,0-.773-1.744l-.7-.728A2.1,2.1,0,0,0,56.846,0,2.7,2.7,0,0,0,55.1.793L52.888,2.977Z" transform="translate(0 0)" fill="#625e00"/>
    </g>
  </g>
</svg>
