<svg id="paperclip" xmlns="http://www.w3.org/2000/svg" width="45" height="51.266" viewBox="0 0 45 51.266">
  <rect id="Rectangle_281" data-name="Rectangle 281" width="45" height="51.266" transform="translate(0)" opacity="0"/>
  <path id="Path_117" data-name="Path 117" d="M38.474,26.661,21.126,44.008a10.679,10.679,0,0,1-4.874,2.938,9.433,9.433,0,0,1-5.122-.071,10.284,10.284,0,0,1-4.449-2.7A10.392,10.392,0,0,1,4,39.736a9.388,9.388,0,0,1-.071-5.11,10.76,10.76,0,0,1,2.915-4.874L30.52,6.1a7.411,7.411,0,0,1,3.021-1.912,6.5,6.5,0,0,1,3.328-.212,5.772,5.772,0,0,1,2.95,1.6,5.825,5.825,0,0,1,1.628,2.962,6.381,6.381,0,0,1-.224,3.316,7.638,7.638,0,0,1-1.9,3.021l-23.13,23.13a2.108,2.108,0,0,1-1.817.767,2.714,2.714,0,0,1-1.558-.72,2.586,2.586,0,0,1-.732-1.558,2.221,2.221,0,0,1,.755-1.841l16.167-16.12a1.89,1.89,0,0,0,.555-1.239,1.546,1.546,0,0,0-.484-1.216,1.619,1.619,0,0,0-1.215-.472,1.717,1.717,0,0,0-1.216.566L10.434,32.4A5.88,5.88,0,0,0,8.841,35.11a5.951,5.951,0,0,0-.024,2.974,5.338,5.338,0,0,0,1.428,2.526A5.531,5.531,0,0,0,15.8,42.073a6.19,6.19,0,0,0,2.679-1.628L41.707,17.22a10.894,10.894,0,0,0,2.927-4.744,9.15,9.15,0,0,0,.047-4.956,9.732,9.732,0,0,0-2.6-4.366A9.627,9.627,0,0,0,37.777.616a9.351,9.351,0,0,0-4.992.012,10.675,10.675,0,0,0-4.768,2.9L4.227,27.345A14.4,14.4,0,0,0,.993,32.089,12.992,12.992,0,0,0,0,37.27a13.613,13.613,0,0,0,4.107,9.5,13.981,13.981,0,0,0,4.414,3.009,13.135,13.135,0,0,0,10.267.083,14.563,14.563,0,0,0,4.744-3.21L41,29.186a1.761,1.761,0,0,0,.519-1.3,1.648,1.648,0,0,0-.543-1.275,1.417,1.417,0,0,0-1.239-.507A2,2,0,0,0,38.474,26.661Z" transform="translate(0 0.4)" fill="rgba(0,0,0,0.85)"/>
</svg>
