<svg xmlns="http://www.w3.org/2000/svg" width="40" height="33.639" viewBox="0 0 40 33.639">
  <path id="Path_162" data-name="Path 162" d="M15.516,31.032a15.344,15.344,0,0,0,3.278-.35,14.125,14.125,0,0,0,3.05-1.034L20.17,27.563a12.368,12.368,0,0,1-2.236.654,13.128,13.128,0,0,1-7.454-.768,12.842,12.842,0,0,1-4.115-2.776A12.99,12.99,0,0,1,3.6,20.551a12.729,12.729,0,0,1-1-5.035,12.729,12.729,0,0,1,1-5.035A12.939,12.939,0,0,1,10.466,3.59a12.646,12.646,0,0,1,5.035-1,12.823,12.823,0,0,1,11.911,7.857,12.952,12.952,0,0,1,1,5.027,5.449,5.449,0,0,1,1.27-.068,6.927,6.927,0,0,1,1.331.205A15.006,15.006,0,0,0,29.83,9.591a15.849,15.849,0,0,0-8.29-8.366A14.932,14.932,0,0,0,15.516,0,14.937,14.937,0,0,0,9.522,1.217,15.744,15.744,0,0,0,4.571,4.579,15.925,15.925,0,0,0,1.217,9.53,14.883,14.883,0,0,0,0,15.516,14.883,14.883,0,0,0,1.217,21.5,15.933,15.933,0,0,0,9.53,29.815,14.882,14.882,0,0,0,15.516,31.032Zm.015-10.846a4.509,4.509,0,0,0,2.343-.631,4.769,4.769,0,0,0,1.7-1.7A4.537,4.537,0,0,0,20.2,15.5a4.469,4.469,0,0,0-.631-2.335,4.789,4.789,0,0,0-1.7-1.688,4.676,4.676,0,0,0-4.693,0,4.872,4.872,0,0,0-1.7,1.688,4.428,4.428,0,0,0-.639,2.335,4.5,4.5,0,0,0,.639,2.358,4.831,4.831,0,0,0,1.7,1.7A4.509,4.509,0,0,0,15.531,20.186ZM34.606,33.07a7.662,7.662,0,0,0,4.852-4.237,9.426,9.426,0,0,0-.228-6.853l-.776-2.175a4.248,4.248,0,0,0-1.468-2.122,1.859,1.859,0,0,0-1.727-.342.375.375,0,0,0-.259.517l.35.958a.787.787,0,0,1,.03.563.567.567,0,0,1-.289.3q-.532.183-.776-.5l-.228-.639a2.07,2.07,0,0,0-1.012-1.209,1.753,1.753,0,0,0-1.438-.068q-.685.259-.472.821l.487,1.308a.8.8,0,0,1,.038.555.481.481,0,0,1-.281.3q-.532.2-.776-.472l-.441-1.217a2,2,0,0,0-1.034-1.278,1.893,1.893,0,0,0-1.415-.031q-.669.243-.456.822l.928,2.571a.807.807,0,0,1,.031.57.506.506,0,0,1-.289.3q-.517.183-.776-.5l-3.1-8.549a1.47,1.47,0,0,0-.73-.882,1.31,1.31,0,0,0-1.034-.061,1.345,1.345,0,0,0-.791.723,1.422,1.422,0,0,0,.015,1.133l4.579,12.55a.5.5,0,0,1-.008.4.386.386,0,0,1-.236.213q-.289.122-.639-.243l-3.073-3.316a1.5,1.5,0,0,0-.707-.472,1.181,1.181,0,0,0-.723.046,1.371,1.371,0,0,0-.806.692,1.236,1.236,0,0,0-.046.951,1.854,1.854,0,0,0,.35.609l3.818,4.776a10.156,10.156,0,0,0,5.134,3.757A8.8,8.8,0,0,0,34.606,33.07Z" fill="rgba(0,0,0,0.5)"/>
</svg>
