<svg id="person.crop.circle.badge.plus" xmlns="http://www.w3.org/2000/svg" width="55.645" height="47.41" viewBox="0 0 55.645 47.41">
  <rect id="Rectangle_384" data-name="Rectangle 384" width="55.645" height="47.41" opacity="0"/>
  <path id="Path_167" data-name="Path 167" d="M32.182,47.024a22.509,22.509,0,0,0,9.052-1.84A24.094,24.094,0,0,0,53.8,32.613a22.509,22.509,0,0,0,1.84-9.052,22.388,22.388,0,0,0-1.852-9.052A24.169,24.169,0,0,0,41.21,1.938a23.18,23.18,0,0,0-17.54-.23A23.968,23.968,0,0,0,16.5,6.171a23.691,23.691,0,0,0-5.153,6.648,22.827,22.827,0,0,0-2.473,8.166,14.117,14.117,0,0,1,1.944-.219,11.651,11.651,0,0,1,2.036.057A19.324,19.324,0,0,1,15,14.187a19.11,19.11,0,0,1,4.256-5.348,19.648,19.648,0,0,1,5.889-3.554,19.956,19.956,0,0,1,14.63.23A19.694,19.694,0,0,1,50.216,15.947a19.124,19.124,0,0,1,1.518,7.614A19.217,19.217,0,0,1,46.7,36.65a12.065,12.065,0,0,0-3.22-2.542,20.28,20.28,0,0,0-4.969-1.967,26.568,26.568,0,0,0-9.523-.564,27.9,27.9,0,0,0-2.875.518,14.663,14.663,0,0,1-.518,8.6A15.059,15.059,0,0,1,23,45.092a23.831,23.831,0,0,0,4.44,1.426A22.2,22.2,0,0,0,32.182,47.024Zm-.023-19.553a7.117,7.117,0,0,0,3.991-1.116A8.234,8.234,0,0,0,38.99,23.25,9.243,9.243,0,0,0,40.049,18.8a8.712,8.712,0,0,0-1.058-4.256,8.4,8.4,0,0,0-2.841-3.082,7.52,7.52,0,0,0-7.994,0A8.364,8.364,0,0,0,25.3,14.544,8.534,8.534,0,0,0,24.268,18.8a9.128,9.128,0,0,0,1.058,4.417,8.257,8.257,0,0,0,2.841,3.094A7.407,7.407,0,0,0,32.158,27.472ZM11.686,47.277a11.127,11.127,0,0,0,4.486-.92,12.109,12.109,0,0,0,3.738-2.53A11.874,11.874,0,0,0,22.451,40.1a11.185,11.185,0,0,0,.92-4.509,11.363,11.363,0,0,0-.909-4.532,11.847,11.847,0,0,0-6.245-6.245,11.365,11.365,0,0,0-4.532-.909,11.307,11.307,0,0,0-4.509.909,11.717,11.717,0,0,0-3.727,2.53A12.15,12.15,0,0,0,.92,31.072a11.59,11.59,0,0,0,0,9.052A11.969,11.969,0,0,0,3.45,43.85a11.806,11.806,0,0,0,3.727,2.519A11.3,11.3,0,0,0,11.686,47.277Zm0-4.371a1.361,1.361,0,0,1-1.024-.391,1.392,1.392,0,0,1-.38-1.012V36.995H5.774a1.392,1.392,0,0,1-1.012-.379,1.536,1.536,0,0,1,0-2.047,1.392,1.392,0,0,1,1.012-.379h4.509V29.68a1.392,1.392,0,0,1,.38-1.012,1.36,1.36,0,0,1,1.024-.391,1.36,1.36,0,0,1,1.024.391,1.392,1.392,0,0,1,.38,1.012v4.509H17.6a1.392,1.392,0,0,1,1.012.379,1.535,1.535,0,0,1,0,2.047,1.392,1.392,0,0,1-1.012.379H13.089V41.5a1.392,1.392,0,0,1-.38,1.012A1.361,1.361,0,0,1,11.686,42.907Z" transform="translate(0 -0.098)" fill="#7fa1ce"/>
</svg>
