<svg id="figure.walk" xmlns="http://www.w3.org/2000/svg" width="38" height="62.107" viewBox="0 0 38 62.107">
  <rect id="Rectangle_257" data-name="Rectangle 257" width="38" height="62.107" opacity="0"/>
  <path id="Path_100" data-name="Path 100" d="M27.867,62.073a2.687,2.687,0,0,0,1.867-.76,2.736,2.736,0,0,0,.827-2.12,3.306,3.306,0,0,0-.16-1.027,8.755,8.755,0,0,0-.427-1.053L24.48,45.993q-.347-.72-.76-1.4t-.813-1.24l-3.493-4.96.24-.72a34.4,34.4,0,0,0,1.053-3.827,30.642,30.642,0,0,0,.493-3.8l.56-8.187a7.807,7.807,0,0,0-.533-3.56,5.675,5.675,0,0,0-2.067-2.573,5.867,5.867,0,0,0-3.4-.96,6.854,6.854,0,0,0-4,1.2,31.628,31.628,0,0,0-3.813,3.2l-4.293,4.24A6.91,6.91,0,0,0,2.133,25.5a7.5,7.5,0,0,0-.533,2.36l-.533,6.693a2.851,2.851,0,0,0,.56,2.12,2.51,2.51,0,0,0,1.867.893,2.466,2.466,0,0,0,1.88-.587,3.027,3.027,0,0,0,.893-2.08l.613-7.387,2.533-2.24a.687.687,0,0,1,.747-.173.55.55,0,0,1,.347.653l-.48,6.613a8.359,8.359,0,0,0,.667,4.147,15.948,15.948,0,0,0,2,3.24l5.573,7.04a4.57,4.57,0,0,1,.573.8q.147.293.307.64l5.947,12a3.115,3.115,0,0,0,1.24,1.44A3.16,3.16,0,0,0,27.867,62.073Zm-25.2,0A2.71,2.71,0,0,0,4.88,61.059l8.347-9.946a8.17,8.17,0,0,0,.84-1.147,8.773,8.773,0,0,0,.467-1.12q.187-.587.347-1.133t.293-1.107l-4.667-5.787L9.12,47.486l-7.84,9.28a9.181,9.181,0,0,0-.92,1.227A2.7,2.7,0,0,0,0,59.433,2.509,2.509,0,0,0,.773,61.34,2.649,2.649,0,0,0,2.667,62.073ZM28.96,31.246h6.133a3.1,3.1,0,0,0,2.106-.693A2.375,2.375,0,0,0,38,28.66a2.425,2.425,0,0,0-.8-1.893,3.029,3.029,0,0,0-2.106-.72H28.587l-4.56-4.987-.48,7.013,1.973,1.973a3.972,3.972,0,0,0,1.48.947A6.319,6.319,0,0,0,28.96,31.246ZM18.933,12.526a5.969,5.969,0,0,0,3.16-.867A6.549,6.549,0,0,0,24.36,9.38a5.9,5.9,0,0,0,.84-3.067,6.184,6.184,0,0,0-.84-3.173A6.264,6.264,0,0,0,22.093.86a6.113,6.113,0,0,0-3.16-.84A5.972,5.972,0,0,0,15.8.86a6.332,6.332,0,0,0-2.24,2.28,6.184,6.184,0,0,0-.84,3.173,5.9,5.9,0,0,0,.84,3.067,6.625,6.625,0,0,0,2.24,2.28A5.833,5.833,0,0,0,18.933,12.526Z" transform="translate(0 0.034)" fill="rgba(0,0,0,0.85)"/>
</svg>
