<svg id="plus.rectangle.fill" xmlns="http://www.w3.org/2000/svg" width="45" height="35.134" viewBox="0 0 45 35.134">
  <rect id="Rectangle_289" data-name="Rectangle 289" width="45" height="35.134" opacity="0"/>
  <path id="Path_121" data-name="Path 121" d="M5.992,35.134H39.008a6.147,6.147,0,0,0,4.5-1.479A5.975,5.975,0,0,0,45,29.237V5.916a6.008,6.008,0,0,0-1.489-4.427A6.122,6.122,0,0,0,39.008,0H5.992A6.153,6.153,0,0,0,1.5,1.479,5.979,5.979,0,0,0,0,5.916V29.237a5.952,5.952,0,0,0,1.5,4.418A6.153,6.153,0,0,0,5.992,35.134ZM13.187,17.6a1.622,1.622,0,0,1,.477-1.212,1.672,1.672,0,0,1,1.221-.468h5.973V9.943a1.712,1.712,0,0,1,.448-1.221,1.536,1.536,0,0,1,1.174-.477,1.622,1.622,0,0,1,1.212.477,1.672,1.672,0,0,1,.468,1.221v5.973h5.992A1.6,1.6,0,0,1,31.832,17.6a1.536,1.536,0,0,1-.477,1.174,1.686,1.686,0,0,1-1.2.448H24.16V25.21a1.6,1.6,0,0,1-1.679,1.679,1.552,1.552,0,0,1-1.174-.468,1.678,1.678,0,0,1-.448-1.212V19.218H14.886a1.712,1.712,0,0,1-1.221-.448A1.536,1.536,0,0,1,13.187,17.6Z"/>
</svg>
