<svg xmlns="http://www.w3.org/2000/svg" width="94" height="94" viewBox="0 0 94 94">
  <g id="Group_336" data-name="Group 336" transform="translate(-12011 -1043)">
    <g id="Group_335" data-name="Group 335" transform="translate(10856 926)">
      <g id="Group_294" data-name="Group 294" transform="translate(620 3)">
        <path id="Path_177" data-name="Path 177" d="M0,0H94V94H0Z" transform="translate(535 114)" fill="#f0f0f0"/>
        <g id="plus.app" transform="translate(558.792 137.879)">
          <rect id="Rectangle_386" data-name="Rectangle 386" width="46.417" height="46.241" fill="#707070" opacity="0"/>
          <path id="Path_168" data-name="Path 168" d="M43.472,2.99A8.721,8.721,0,0,0,38.866.536,31.094,31.094,0,0,0,32.976.02H13.366A30.6,30.6,0,0,0,7.539.536,8.716,8.716,0,0,0,2.945,2.99,8.654,8.654,0,0,0,.516,7.546,30.405,30.405,0,0,0,0,13.361V32.794a31.645,31.645,0,0,0,.5,5.877A8.508,8.508,0,0,0,2.945,43.24a8.716,8.716,0,0,0,4.594,2.454,30.9,30.9,0,0,0,5.878.516H32.976a31.093,31.093,0,0,0,5.89-.516A8.9,8.9,0,0,0,45.9,38.671a30.893,30.893,0,0,0,.516-5.877V13.436A30.9,30.9,0,0,0,45.9,7.559,8.659,8.659,0,0,0,43.472,2.99Zm-1.108,9.742V33.473A19.658,19.658,0,0,1,42,37.287a5.785,5.785,0,0,1-1.5,3.008,5.66,5.66,0,0,1-3.008,1.5,19.914,19.914,0,0,1-3.814.365H12.737a19.915,19.915,0,0,1-3.814-.365,5.8,5.8,0,0,1-3.033-1.5,5.709,5.709,0,0,1-1.485-3.008,20.339,20.339,0,0,1-.352-3.814V12.807a20.881,20.881,0,0,1,.352-3.864A5.588,5.588,0,0,1,5.89,5.935a5.52,5.52,0,0,1,3.033-1.51,21.287,21.287,0,0,1,3.889-.352H33.68a19.914,19.914,0,0,1,3.814.365,5.66,5.66,0,0,1,3.008,1.5,5.618,5.618,0,0,1,1.51,3.008A20.2,20.2,0,0,1,42.365,12.731ZM11.554,23.077a1.967,1.967,0,0,0,.6,1.485,2.162,2.162,0,0,0,1.561.579h7.4v7.426a2.119,2.119,0,0,0,.579,1.548,1.988,1.988,0,0,0,1.485.592,2.03,2.03,0,0,0,2.14-2.14V25.141h7.426a2.119,2.119,0,0,0,1.548-.579,1.988,1.988,0,0,0,.592-1.485,2.03,2.03,0,0,0-2.14-2.14H25.323v-7.4a2.126,2.126,0,0,0-.592-1.573,2.094,2.094,0,0,0-1.548-.592,1.967,1.967,0,0,0-1.485.6,2.162,2.162,0,0,0-.579,1.561v7.4h-7.4a2.127,2.127,0,0,0-1.573.592A2.094,2.094,0,0,0,11.554,23.077Z" transform="translate(0 0.031)" fill="#707070"/>
        </g>
      </g>
      <line id="Line_142" data-name="Line 142" y2="61" transform="translate(1155.5 133.5)" fill="none" stroke="#cecece" stroke-width="1"/>
    </g>
    <text id="New_ID" data-name="New ID" transform="translate(12041 1126)" fill="#707070" font-size="10" font-family="Prompt-Medium, Prompt" font-weight="500"><tspan x="0" y="0">New ID</tspan></text>
  </g>
</svg>
