<?xml version="1.0" encoding="UTF-8"?>
<!--Generator: Apple Native CoreSVG 175.5-->
<!DOCTYPE svg
PUBLIC "-//W3C//DTD SVG 1.1//EN"
       "http://www.w3.org/Graphics/SVG/1.1/DTD/svg11.dtd">
<svg version="1.1" xmlns="http://www.w3.org/2000/svg" xmlns:xlink="http://www.w3.org/1999/xlink" width="89.8926" height="89.9902">
 <g>
  <rect height="89.9902" opacity="0" width="89.8926" x="0" y="0"/>
  <path d="M15.332 89.9902L74.5605 89.9902C84.8145 89.9902 89.8926 84.9121 89.8926 74.8535L89.8926 15.2344C89.8926 5.17578 84.8145 0.0976562 74.5605 0.0976562L15.332 0.0976562C5.12695 0.0976562 0 5.12695 0 15.2344L0 74.8535C0 84.9609 5.12695 89.9902 15.332 89.9902ZM15.4297 82.1289C10.5469 82.1289 7.86133 79.541 7.86133 74.4629L7.86133 15.625C7.86133 10.5469 10.5469 7.95898 15.4297 7.95898L74.4629 7.95898C79.2969 7.95898 82.0312 10.5469 82.0312 15.625L82.0312 74.4629C82.0312 79.541 79.2969 82.1289 74.4629 82.1289ZM11.377 85.0098L78.6133 85.0098C75.7324 71.2891 61.9629 61.3281 45.0195 61.3281C28.0273 61.3281 14.2578 71.2891 11.377 85.0098ZM44.9707 53.1738C54.2969 53.2715 61.6699 45.3125 61.6699 34.8633C61.6699 25.0488 54.2969 16.9434 44.9707 16.9434C35.6445 16.9434 28.2227 25.0488 28.2715 34.8633C28.3203 45.3125 35.6445 53.0762 44.9707 53.1738Z" fill="#000000" fill-opacity="0.25"/>
 </g>
</svg>
