<svg id="person.crop.circle.badge.checkmark" xmlns="http://www.w3.org/2000/svg" width="36" height="30.672" viewBox="0 0 36 30.672">
  <rect id="Rectangle_398" data-name="Rectangle 398" width="36" height="30.672" fill="#8e8e93" opacity="0"/>
  <path id="Path_173" data-name="Path 173" d="M20.82,30.457a14.562,14.562,0,0,0,5.856-1.191,15.588,15.588,0,0,0,8.133-8.133A14.562,14.562,0,0,0,36,15.278a14.484,14.484,0,0,0-1.2-5.856,15.636,15.636,0,0,0-8.141-8.133,15,15,0,0,0-11.348-.149,15.506,15.506,0,0,0-4.636,2.887,15.327,15.327,0,0,0-3.334,4.3,14.768,14.768,0,0,0-1.6,5.283A9.133,9.133,0,0,1,7,13.469a7.538,7.538,0,0,1,1.317.037A12.5,12.5,0,0,1,9.7,9.213a12.364,12.364,0,0,1,2.753-3.46,12.711,12.711,0,0,1,3.81-2.3,12.911,12.911,0,0,1,9.465.149,12.741,12.741,0,0,1,6.757,6.749,12.372,12.372,0,0,1,.982,4.926,12.432,12.432,0,0,1-3.259,8.468A7.805,7.805,0,0,0,28.127,22.1a13.12,13.12,0,0,0-3.214-1.272,17.188,17.188,0,0,0-6.161-.365,18.05,18.05,0,0,0-1.86.335,9.486,9.486,0,0,1-.335,5.566,9.743,9.743,0,0,1-1.674,2.842,15.417,15.417,0,0,0,2.872.923A14.365,14.365,0,0,0,20.82,30.457Zm-.015-12.65a4.6,4.6,0,0,0,2.582-.722,5.327,5.327,0,0,0,1.838-2.009,5.98,5.98,0,0,0,.685-2.88,5.637,5.637,0,0,0-.685-2.753,5.433,5.433,0,0,0-1.838-1.994,4.865,4.865,0,0,0-5.172,0A5.411,5.411,0,0,0,16.37,9.444,5.521,5.521,0,0,0,15.7,12.2a5.905,5.905,0,0,0,.685,2.857,5.342,5.342,0,0,0,1.838,2A4.792,4.792,0,0,0,20.805,17.808ZM7.56,30.621a7.2,7.2,0,0,0,2.9-.6,7.834,7.834,0,0,0,2.418-1.637,7.682,7.682,0,0,0,1.644-2.411,7.236,7.236,0,0,0,.6-2.917,7.351,7.351,0,0,0-.588-2.932,7.665,7.665,0,0,0-4.041-4.041A7.353,7.353,0,0,0,7.56,15.5a7.315,7.315,0,0,0-2.917.588,7.58,7.58,0,0,0-2.411,1.637A7.861,7.861,0,0,0,.6,20.137a7.5,7.5,0,0,0,0,5.856A7.743,7.743,0,0,0,2.232,28.4a7.638,7.638,0,0,0,2.411,1.63A7.314,7.314,0,0,0,7.56,30.621Zm-.908-3.111a1.157,1.157,0,0,1-.387-.074.872.872,0,0,1-.357-.238l-2.857-3.14a.749.749,0,0,1-.126-.26,1.146,1.146,0,0,1-.052-.335.909.909,0,0,1,.268-.67.891.891,0,0,1,.655-.268.863.863,0,0,1,.417.1,1.084,1.084,0,0,1,.3.231l2.113,2.277,3.914-5.447a.946.946,0,0,1,1.444-.149.867.867,0,0,1,.283.655.82.82,0,0,1-.052.268,1.227,1.227,0,0,1-.156.3L7.441,27.168A.916.916,0,0,1,6.652,27.511Z" transform="translate(0 0.051)" fill="#8e8e93"/>
</svg>
