<svg id="rectangle.topthird.inset.filled" xmlns="http://www.w3.org/2000/svg" width="44.829" height="35" viewBox="0 0 44.829 35">
  <rect id="Rectangle_230" data-name="Rectangle 230" width="44.829" height="35" opacity="0"/>
  <path id="Path_92" data-name="Path 92" d="M7.319,13.232H37.51a1.739,1.739,0,0,0,1.283-.4,1.834,1.834,0,0,0,.39-1.312V7.376a1.834,1.834,0,0,0-.39-1.312,1.739,1.739,0,0,0-1.283-.4H7.319a1.7,1.7,0,0,0-1.274.4,1.865,1.865,0,0,0-.38,1.312v4.144a1.865,1.865,0,0,0,.38,1.312A1.7,1.7,0,0,0,7.319,13.232ZM5.97,35h32.89a6.124,6.124,0,0,0,4.487-1.473,5.952,5.952,0,0,0,1.483-4.4V5.894a5.986,5.986,0,0,0-1.483-4.411A6.1,6.1,0,0,0,38.859,0H5.97A6.129,6.129,0,0,0,1.492,1.473,5.956,5.956,0,0,0,0,5.894V29.125a5.929,5.929,0,0,0,1.492,4.4A6.129,6.129,0,0,0,5.97,35Zm.038-3.061a2.982,2.982,0,0,1-2.186-.751,3.008,3.008,0,0,1-.76-2.234V6.065a3.042,3.042,0,0,1,.76-2.243,2.959,2.959,0,0,1,2.186-.76H38.821A2.966,2.966,0,0,1,41,3.821a3.019,3.019,0,0,1,.77,2.243v22.89a2.663,2.663,0,0,1-2.947,2.985Z"/>
</svg>
