<svg id="square.and.pencil" xmlns="http://www.w3.org/2000/svg" width="35" height="37.385" viewBox="0 0 35 37.385">
  <rect id="Rectangle_342" data-name="Rectangle 342" width="35" height="37.385" transform="translate(0 0)" fill="#7f7f7f" opacity="0"/>
  <path id="Path_146" data-name="Path 146" d="M5.555,34.941H26.323a4.9,4.9,0,0,0,3.706-1.371,5.726,5.726,0,0,0,1.318-4.113V10.546L28.5,13.394V29.315a2.94,2.94,0,0,1-.654,2.079,2.062,2.062,0,0,1-1.557.7H5.608a2.806,2.806,0,0,1-2.043-.7,2.779,2.779,0,0,1-.716-2.079V9.237A2.81,2.81,0,0,1,3.565,7.15a2.785,2.785,0,0,1,2.043-.708H21.723l2.848-2.848H5.555A5.709,5.709,0,0,0,1.4,4.965,5.521,5.521,0,0,0,0,9.078V29.457A5.521,5.521,0,0,0,1.4,33.57,5.708,5.708,0,0,0,5.555,34.941Zm6.439-11.463,3.45-1.5,16.523-16.5L29.542,3.081l-16.5,16.5-1.592,3.326a.387.387,0,0,0,.1.451A.371.371,0,0,0,11.994,23.477Zm21.281-19.3,1.274-1.309A1.555,1.555,0,0,0,35,1.816,1.343,1.343,0,0,0,34.549.8L34.142.374A1.224,1.224,0,0,0,33.16,0a1.574,1.574,0,0,0-1.017.46L30.851,1.736Z" transform="translate(0 0)" fill="#7f7f7f"/>
</svg>
