<svg id="text.justify.left" xmlns="http://www.w3.org/2000/svg" width="40.789" height="35" viewBox="0 0 40.789 35">
  <rect id="Rectangle_232" data-name="Rectangle 232" width="40.789" height="35" opacity="0"/>
  <path id="Path_94" data-name="Path 94" d="M1.518,3.063H39.231a1.518,1.518,0,0,0,1.1-.446,1.474,1.474,0,0,0,.455-1.1A1.451,1.451,0,0,0,40.334.446,1.518,1.518,0,0,0,39.231,0H1.518A1.461,1.461,0,0,0,.445.446,1.467,1.467,0,0,0,0,1.521a1.491,1.491,0,0,0,.445,1.1A1.461,1.461,0,0,0,1.518,3.063Zm0,10.63H39.231a1.518,1.518,0,0,0,1.1-.446,1.474,1.474,0,0,0,.455-1.1,1.441,1.441,0,0,0-.455-1.085,1.537,1.537,0,0,0-1.1-.436H1.518a1.478,1.478,0,0,0-1.073.436A1.457,1.457,0,0,0,0,12.151a1.491,1.491,0,0,0,.445,1.1A1.461,1.461,0,0,0,1.518,13.693Zm0,10.63H39.231a1.518,1.518,0,0,0,1.1-.446,1.474,1.474,0,0,0,.455-1.1,1.442,1.442,0,0,0-.455-1.085,1.537,1.537,0,0,0-1.1-.436H1.518A1.478,1.478,0,0,0,.445,21.7,1.458,1.458,0,0,0,0,22.781a1.491,1.491,0,0,0,.445,1.1A1.461,1.461,0,0,0,1.518,24.322Zm0,10.609h21.66a1.512,1.512,0,0,0,1.083-.436,1.441,1.441,0,0,0,.455-1.085,1.475,1.475,0,0,0-.455-1.1,1.5,1.5,0,0,0-1.083-.446H1.518a1.461,1.461,0,0,0-1.073.446A1.491,1.491,0,0,0,0,33.41,1.457,1.457,0,0,0,.445,34.5,1.478,1.478,0,0,0,1.518,34.932Z" transform="translate(0 0)"/>
</svg>
