<svg id="text.justify.left" xmlns="http://www.w3.org/2000/svg" width="35" height="30.032" viewBox="0 0 35 30.032">
  <rect id="Rectangle_338" data-name="Rectangle 338" width="35" height="30.032" opacity="0"/>
  <path id="Path_142" data-name="Path 142" d="M1.3,2.623h32.36a1.3,1.3,0,0,0,.947-.382A1.261,1.261,0,0,0,35,1.3a1.241,1.241,0,0,0-.391-.921A1.3,1.3,0,0,0,33.663,0H1.3A1.255,1.255,0,0,0,.382.382,1.255,1.255,0,0,0,0,1.3a1.275,1.275,0,0,0,.382.938A1.255,1.255,0,0,0,1.3,2.623Zm0,9.1h32.36a1.3,1.3,0,0,0,.947-.382A1.261,1.261,0,0,0,35,10.4a1.233,1.233,0,0,0-.391-.929,1.32,1.32,0,0,0-.947-.373H1.3a1.27,1.27,0,0,0-.921.373A1.247,1.247,0,0,0,0,10.4a1.275,1.275,0,0,0,.382.938A1.255,1.255,0,0,0,1.3,11.725Zm0,9.1h32.36a1.3,1.3,0,0,0,.947-.382A1.261,1.261,0,0,0,35,19.506a1.233,1.233,0,0,0-.391-.929,1.32,1.32,0,0,0-.947-.373H1.3a1.27,1.27,0,0,0-.921.373A1.247,1.247,0,0,0,0,19.506a1.275,1.275,0,0,0,.382.938A1.255,1.255,0,0,0,1.3,20.826Zm0,9.084H19.888a1.3,1.3,0,0,0,.929-.374,1.233,1.233,0,0,0,.391-.929,1.261,1.261,0,0,0-.391-.938,1.284,1.284,0,0,0-.929-.382H1.3a1.255,1.255,0,0,0-.921.382A1.276,1.276,0,0,0,0,28.608a1.246,1.246,0,0,0,.382.929A1.269,1.269,0,0,0,1.3,29.911Z" fill="rgba(0,0,0,0.5)"/>
</svg>
