<svg id="text.justify.left" xmlns="http://www.w3.org/2000/svg" width="60" height="51.484" viewBox="0 0 60 51.484">
  <rect id="Rectangle_338" data-name="Rectangle 338" width="60" height="51.484" fill="#625e00" opacity="0"/>
  <path id="Path_142" data-name="Path 142" d="M2.233,4.5H57.707a2.236,2.236,0,0,0,1.623-.655A2.162,2.162,0,0,0,60,2.233,2.128,2.128,0,0,0,59.33.655,2.236,2.236,0,0,0,57.707,0H2.233A2.151,2.151,0,0,0,.655.655,2.151,2.151,0,0,0,0,2.233,2.186,2.186,0,0,0,.655,3.841,2.151,2.151,0,0,0,2.233,4.5Zm0,15.6H57.707a2.236,2.236,0,0,0,1.623-.655A2.162,2.162,0,0,0,60,17.836a2.114,2.114,0,0,0-.67-1.593,2.263,2.263,0,0,0-1.623-.64H2.233a2.176,2.176,0,0,0-1.578.64A2.137,2.137,0,0,0,0,17.836a2.186,2.186,0,0,0,.655,1.608A2.151,2.151,0,0,0,2.233,20.1Zm0,15.6H57.707a2.235,2.235,0,0,0,1.623-.655A2.161,2.161,0,0,0,60,33.439a2.114,2.114,0,0,0-.67-1.593,2.263,2.263,0,0,0-1.623-.64H2.233a2.177,2.177,0,0,0-1.578.64A2.138,2.138,0,0,0,0,33.439a2.186,2.186,0,0,0,.655,1.608A2.151,2.151,0,0,0,2.233,35.7Zm0,15.573H34.094a2.227,2.227,0,0,0,1.593-.64,2.113,2.113,0,0,0,.67-1.593,2.162,2.162,0,0,0-.67-1.608,2.2,2.2,0,0,0-1.593-.655H2.233a2.151,2.151,0,0,0-1.578.655A2.187,2.187,0,0,0,0,49.042a2.137,2.137,0,0,0,.655,1.593A2.176,2.176,0,0,0,2.233,51.276Z" fill="#625e00"/>
</svg>
