<svg id="text.justify" xmlns="http://www.w3.org/2000/svg" width="45" height="38.613" viewBox="0 0 45 38.613">
  <rect id="Rectangle_287" data-name="Rectangle 287" width="45" height="38.613" opacity="0"/>
  <path id="Path_120" data-name="Path 120" d="M1.675,3.372H43.281A1.677,1.677,0,0,0,44.5,2.881,1.621,1.621,0,0,0,45,1.675,1.6,1.6,0,0,0,44.5.491,1.677,1.677,0,0,0,43.281,0H1.675A1.613,1.613,0,0,0,.491.491,1.613,1.613,0,0,0,0,1.675,1.64,1.64,0,0,0,.491,2.881,1.613,1.613,0,0,0,1.675,3.372Zm0,11.7H43.281a1.677,1.677,0,0,0,1.217-.491,1.621,1.621,0,0,0,.5-1.206,1.585,1.585,0,0,0-.5-1.195,1.7,1.7,0,0,0-1.217-.48H1.675a1.632,1.632,0,0,0-1.184.48A1.6,1.6,0,0,0,0,13.377a1.64,1.64,0,0,0,.491,1.206A1.613,1.613,0,0,0,1.675,15.074Zm0,11.7H43.281a1.676,1.676,0,0,0,1.217-.491,1.621,1.621,0,0,0,.5-1.206,1.586,1.586,0,0,0-.5-1.195,1.7,1.7,0,0,0-1.217-.48H1.675a1.633,1.633,0,0,0-1.184.48A1.6,1.6,0,0,0,0,25.079a1.639,1.639,0,0,0,.491,1.206A1.613,1.613,0,0,0,1.675,26.777Zm0,11.68H43.281a1.7,1.7,0,0,0,1.217-.48,1.585,1.585,0,0,0,.5-1.195,1.622,1.622,0,0,0-.5-1.206,1.677,1.677,0,0,0-1.217-.491H1.675a1.613,1.613,0,0,0-1.184.491A1.64,1.64,0,0,0,0,36.782a1.6,1.6,0,0,0,.491,1.195A1.632,1.632,0,0,0,1.675,38.457Z"/>
</svg>
