<svg id="trash.square" xmlns="http://www.w3.org/2000/svg" width="35" height="35.456" viewBox="0 0 35 35.456">
  <rect id="Rectangle_271" data-name="Rectangle 271" width="35" height="35.456" opacity="0"/>
  <path id="Path_114" data-name="Path 114" d="M5.97,35.234H29.03a6.129,6.129,0,0,0,4.477-1.473A5.957,5.957,0,0,0,35,29.341V6.128a5.956,5.956,0,0,0-1.492-4.42A6.129,6.129,0,0,0,29.03.234H5.97A6.129,6.129,0,0,0,1.492,1.708,5.956,5.956,0,0,0,0,6.128V29.341a5.957,5.957,0,0,0,1.492,4.42A6.129,6.129,0,0,0,5.97,35.234Zm.038-3.061a2.982,2.982,0,0,1-2.186-.751,3.009,3.009,0,0,1-.76-2.234V6.28a3.008,3.008,0,0,1,.76-2.234A2.982,2.982,0,0,1,6.008,3.3H28.992a2.988,2.988,0,0,1,2.177.751,2.986,2.986,0,0,1,.77,2.234V29.189a2.663,2.663,0,0,1-2.947,2.985Zm6.6-3.27h9.829a2.129,2.129,0,0,0,1.511-.523,1.973,1.973,0,0,0,.58-1.474l.646-15.038h1.5a.789.789,0,0,0,.58-.238.841.841,0,0,0,.257-.561.7.7,0,0,0-.238-.58.854.854,0,0,0-.6-.238H22.129V8.713A2.458,2.458,0,0,0,21.4,6.841a2.77,2.77,0,0,0-1.987-.694H15.57a2.708,2.708,0,0,0-1.958.694,2.475,2.475,0,0,0-.722,1.873v1.54H8.308a.811.811,0,0,0-.817.817.767.767,0,0,0,.238.561.789.789,0,0,0,.58.238H9.867l.646,15.038a1.9,1.9,0,0,0,2.091,2Zm1.635-2.947q-.684,0-.684-.647l-.4-11.1q0-.665.7-.665a.607.607,0,0,1,.684.665l.361,11.1A.58.58,0,0,1,14.24,25.957Zm3.232,0q-.684,0-.684-.647v-11.1a.6.6,0,0,1,.684-.665q.722,0,.722.665v11.1Q18.194,25.957,17.472,25.957Zm3.251,0a.58.58,0,0,1-.665-.647l.361-11.1a.616.616,0,0,1,.7-.665.6.6,0,0,1,.684.665l-.4,11.1Q21.407,25.957,20.722,25.957Zm-5.912-15.7V8.809a.781.781,0,0,1,.238-.589.855.855,0,0,1,.618-.228H19.3a.889.889,0,0,1,.627.228.766.766,0,0,1,.247.589v1.445Z" transform="translate(0 0.222)" fill="rgba(0,0,0,0.25)"/>
</svg>
