<svg id="tray.and.arrow.down" xmlns="http://www.w3.org/2000/svg" width="551.101" height="539.172" viewBox="0 0 551.101 539.172">
  <g id="Group_1" data-name="Group 1">
    <rect id="Rectangle_8" data-name="Rectangle 8" width="548.715" height="539.172" fill="rgba(0,0,0,0)"/>
    <path id="Path_1" data-name="Path 1" d="M73.957,412.457H477.143c23.857,0,42.943-7.157,54.871-19.086S551.1,362.357,551.1,338.5V200.129c0-9.543,0-19.086-2.386-26.243a71.429,71.429,0,0,0-9.543-19.086L458.057,54.6c-9.543-11.929-16.7-21.471-26.243-28.629s-16.7-9.543-26.243-14.314S384.1,4.5,372.172,4.5h-33.4V37.9h35.786c9.543,0,16.7,2.386,26.243,9.543,7.157,7.157,14.314,11.929,21.471,19.086l83.5,104.971c4.771,7.157,7.157,9.543,4.771,11.929s-4.771,4.771-11.929,4.771H350.7c-7.157,0-9.543,2.386-14.314,4.771-2.386,4.771-4.771,7.157-4.771,11.929h0c0,9.543-2.386,16.7-7.157,26.243s-11.929,14.314-19.086,21.471q-10.736,7.157-28.629,7.157t-28.629-7.157a56.325,56.325,0,0,1-19.086-21.471c-4.771-9.543-7.157-16.7-7.157-26.243h0a18.223,18.223,0,0,0-4.771-11.929c-2.386-4.771-7.157-4.771-14.314-4.771H54.871c-7.157,0-9.543-2.386-11.929-4.771s0-7.157,4.771-11.929l83.5-104.971c4.771-7.157,11.929-11.929,19.086-19.086,9.543-7.157,16.7-9.543,26.243-9.543h38.171V4.5H178.929q-21.471,0-35.786,7.157c-7.157,4.771-16.7,9.543-23.857,19.086A339.968,339.968,0,0,0,93.043,59.371l-81.114,100.2c-4.771,7.157-9.543,11.929-9.543,19.086C0,183.429,0,192.971,0,202.514V340.886c0,23.857,7.157,42.943,19.086,54.871C31.014,405.3,47.714,412.457,73.957,412.457Zm0-38.172c-11.929,0-21.471-2.386-26.243-9.543-7.157-7.157-9.543-14.314-9.543-28.629v-116.9H186.086A105.405,105.405,0,0,0,200.4,257.386a65.965,65.965,0,0,0,31.014,26.243c11.929,7.157,26.243,9.543,42.943,9.543s31.014-2.386,42.943-9.543,23.857-16.7,31.014-26.243c7.157-11.929,14.314-23.857,14.314-38.171H510.543v116.9c0,11.929-2.386,21.471-9.543,28.629s-14.314,9.543-26.243,9.543Z" transform="translate(0 102.857)" fill="#7fa1ce"/>
  </g>
  <path id="Path_2" data-name="Path 2" d="M105.214,289.672c2.386,0,4.771,0,7.157-2.386,2.386,0,4.771-2.386,7.157-4.771l78.729-76.343c2.386-4.771,4.771-7.157,4.771-11.929a16.307,16.307,0,0,0-16.7-16.7,18.223,18.223,0,0,0-11.929,4.771l-35.786,38.171-16.7,16.7L124.3,201.4V17.7a18.223,18.223,0,0,0-4.771-11.929C114.757,3.386,109.986,1,105.214,1A18.223,18.223,0,0,0,93.286,5.771c-4.771,2.386-4.771,7.157-4.771,11.929V201.4L90.9,237.186l-16.7-16.7L38.414,184.7q-7.157-7.157-14.314-7.157a18.223,18.223,0,0,0-11.929,4.771,17.3,17.3,0,0,0,0,23.857L90.9,282.514c2.386,2.386,4.771,4.771,7.157,4.771S102.829,289.672,105.214,289.672Z" transform="translate(169.143 22.857)" fill="#f27254"/>
</svg>
