<svg id="xmark.square.fill" xmlns="http://www.w3.org/2000/svg" width="49.112" height="49.166" viewBox="0 0 49.112 49.166">
  <rect id="Rectangle_94" data-name="Rectangle 94" width="49.113" height="49.166" opacity="0"/>
  <path id="Path_36" data-name="Path 36" d="M8.377,49.132H40.736q4.188,0,6.282-2.067t2.094-6.2V8.289q0-4.135-2.094-6.2T40.736.02H8.377Q4.188.02,2.094,2.087T0,8.289V40.862Q0,45,2.094,47.065T8.377,49.132Zm7.23-13.392a2.086,2.086,0,0,1-1.547-.654,2.152,2.152,0,0,1-.64-1.56,2.108,2.108,0,0,1,.64-1.547l7.416-7.416-7.416-7.39a2.166,2.166,0,0,1-.64-1.547,2.1,2.1,0,0,1,.64-1.561,2.131,2.131,0,0,1,1.547-.627,2.215,2.215,0,0,1,1.547.614L24.6,21.468l7.5-7.443a2.078,2.078,0,0,1,1.521-.64A2.186,2.186,0,0,1,35.8,15.572a2.2,2.2,0,0,1-.64,1.574l-7.443,7.416,7.416,7.39a2.031,2.031,0,0,1,.64,1.574,2.152,2.152,0,0,1-.64,1.56,2.116,2.116,0,0,1-1.574.654,2.084,2.084,0,0,1-1.574-.64L24.6,27.684,17.233,35.1A2.262,2.262,0,0,1,15.606,35.74Z" transform="translate(0 0.034)" fill="rgba(0,0,0,0.25)"/>
</svg>
