<svg id="display" xmlns="http://www.w3.org/2000/svg" width="40.75" height="35.639" viewBox="0 0 40.75 35.639">
  <rect id="Rectangle_310" data-name="Rectangle 310" width="40.75" height="35.639" fill="#00620c" opacity="0"/>
  <path id="Path_123" data-name="Path 123" d="M3.931,29.058H36.8A3.638,3.638,0,0,0,40.75,25.11V4.615A3.886,3.886,0,0,0,39.7,1.726,3.934,3.934,0,0,0,36.8.684H3.931a3.91,3.91,0,0,0-2.88,1.043A3.886,3.886,0,0,0,0,4.615V25.11a3.915,3.915,0,0,0,1.051,2.9A3.892,3.892,0,0,0,3.931,29.058Zm.051-2.752a1.212,1.212,0,0,1-.9-.333,1.213,1.213,0,0,1-.333-.9V4.666a1.206,1.206,0,0,1,.333-.906,1.231,1.231,0,0,1,.9-.325H36.767a1.231,1.231,0,0,1,.9.325A1.207,1.207,0,0,1,38,4.666V25.075a1.149,1.149,0,0,1-1.231,1.231Zm10.991,6.82h10.8v-4.29h-10.8Zm-.1,2H25.879a1.317,1.317,0,0,0,.966-.4,1.4,1.4,0,0,0,0-1.966,1.317,1.317,0,0,0-.966-.4H14.871a1.345,1.345,0,0,0-.974.4,1.382,1.382,0,0,0,0,1.966A1.345,1.345,0,0,0,14.871,35.126Z" transform="translate(0 0.513)" fill="#00620c"/>
</svg>
