<svg id="eye.slash" xmlns="http://www.w3.org/2000/svg" width="26.689" height="18.281" viewBox="0 0 26.689 18.281">
  <rect id="Rectangle_315" data-name="Rectangle 315" width="26.69" height="18.281" opacity="0"/>
  <path id="Path_127" data-name="Path 127" d="M13.35,17.515a14.717,14.717,0,0,0,2.607-.225,15.955,15.955,0,0,0,2.383-.615L17.06,15.4a14.439,14.439,0,0,1-1.8.42,11.505,11.505,0,0,1-1.914.156,11.836,11.836,0,0,1-3.1-.4,14.439,14.439,0,0,1-2.783-1.06,16.462,16.462,0,0,1-2.354-1.44A16.274,16.274,0,0,1,3.3,11.524a8.85,8.85,0,0,1-1.177-1.4,2.068,2.068,0,0,1-.41-.977,1.712,1.712,0,0,1,.327-.771,8.632,8.632,0,0,1,.938-1.182A14.764,14.764,0,0,1,4.448,5.816,15.525,15.525,0,0,1,6.4,4.458L5.186,3.247A16.077,16.077,0,0,0,3,4.844,14.123,14.123,0,0,0,1.372,6.509,8.746,8.746,0,0,0,.352,8.018,2.647,2.647,0,0,0,0,9.146a2.92,2.92,0,0,0,.444,1.3A9.86,9.86,0,0,0,1.729,12.2a16.118,16.118,0,0,0,2.021,1.88,16.71,16.71,0,0,0,2.671,1.714,16.1,16.1,0,0,0,3.232,1.25A14.04,14.04,0,0,0,13.35,17.515Zm0-16.738a13.95,13.95,0,0,0-2.436.205,15.79,15.79,0,0,0-2.241.566L9.961,2.827a14.152,14.152,0,0,1,1.645-.371,10.778,10.778,0,0,1,1.743-.137,11.406,11.406,0,0,1,3.086.415,14.312,14.312,0,0,1,2.783,1.094A17.159,17.159,0,0,1,21.572,5.3a15.945,15.945,0,0,1,1.816,1.567,10.671,10.671,0,0,1,1.177,1.382,1.92,1.92,0,0,1,.415.9,1.751,1.751,0,0,1-.308.815,7.58,7.58,0,0,1-.889,1.152,13.8,13.8,0,0,1-1.392,1.313,15.838,15.838,0,0,1-1.826,1.3l1.2,1.2a16.328,16.328,0,0,0,2.065-1.582,14.142,14.142,0,0,0,1.548-1.626,8.542,8.542,0,0,0,.972-1.47,2.63,2.63,0,0,0,.337-1.1,2.943,2.943,0,0,0-.44-1.3,9.873,9.873,0,0,0-1.27-1.748,15.713,15.713,0,0,0-2.007-1.88A16.609,16.609,0,0,0,20.313,2.5a15.923,15.923,0,0,0-3.237-1.25A14.229,14.229,0,0,0,13.35.776Zm0,13.838a5.074,5.074,0,0,0,1.245-.151,6.03,6.03,0,0,0,1.148-.415L8.418,6.724a5.391,5.391,0,0,0-.566,2.422A5.5,5.5,0,0,0,9.453,13,5.524,5.524,0,0,0,11.2,14.185,5.365,5.365,0,0,0,13.35,14.614Zm5.01-3.33a5.185,5.185,0,0,0,.347-1.03,5.032,5.032,0,0,0,.122-1.108,5.421,5.421,0,0,0-1.6-3.882A5.458,5.458,0,0,0,13.35,3.677a5.277,5.277,0,0,0-1.118.117,5.368,5.368,0,0,0-1.03.332ZM20.947,17.6a.763.763,0,0,0,.532.234.669.669,0,0,0,.532-.234.716.716,0,0,0,.234-.542.754.754,0,0,0-.234-.522L5.684.22A.74.74,0,0,0,5.151,0a.722.722,0,0,0-.542.22.723.723,0,0,0-.215.532.723.723,0,0,0,.215.532Z" fill="rgba(0,0,0,0.5)"/>
</svg>
