<svg id="eye" xmlns="http://www.w3.org/2000/svg" width="26.689" height="16.748" viewBox="0 0 26.689 16.748">
  <rect id="Rectangle_312" data-name="Rectangle 312" width="26.69" height="16.748" opacity="0"/>
  <path id="Path_124" data-name="Path 124" d="M13.35,16.748a14.23,14.23,0,0,0,3.726-.474,15.92,15.92,0,0,0,3.237-1.25,16.611,16.611,0,0,0,2.661-1.714,15.717,15.717,0,0,0,2.007-1.88,9.873,9.873,0,0,0,1.27-1.748,2.943,2.943,0,0,0,.44-1.3,2.943,2.943,0,0,0-.44-1.3,9.872,9.872,0,0,0-1.27-1.748,15.713,15.713,0,0,0-2.007-1.88,16.515,16.515,0,0,0-2.666-1.714A16.039,16.039,0,0,0,17.065.483,14.19,14.19,0,0,0,13.35.01,14,14,0,0,0,9.663.483a16.1,16.1,0,0,0-3.232,1.25A16.913,16.913,0,0,0,3.755,3.447a15.957,15.957,0,0,0-2.026,1.88A9.86,9.86,0,0,0,.444,7.075,2.921,2.921,0,0,0,0,8.379a2.921,2.921,0,0,0,.444,1.3,9.86,9.86,0,0,0,1.284,1.748,16.123,16.123,0,0,0,2.021,1.88,16.715,16.715,0,0,0,2.671,1.714,16.1,16.1,0,0,0,3.232,1.25A14.043,14.043,0,0,0,13.35,16.748Zm0-1.543a11.836,11.836,0,0,1-3.1-.4,14.439,14.439,0,0,1-2.783-1.06A16.462,16.462,0,0,1,5.117,12.3,16.274,16.274,0,0,1,3.3,10.757a8.848,8.848,0,0,1-1.177-1.4,2.068,2.068,0,0,1-.41-.977,1.932,1.932,0,0,1,.41-.9A10.177,10.177,0,0,1,3.3,6.1,16.313,16.313,0,0,1,5.117,4.531a17.158,17.158,0,0,1,2.354-1.47,14.31,14.31,0,0,1,2.783-1.094,11.7,11.7,0,0,1,6.177,0,14.345,14.345,0,0,1,2.778,1.094,17.422,17.422,0,0,1,2.358,1.47A15.743,15.743,0,0,1,23.389,6.1,10.67,10.67,0,0,1,24.565,7.48a1.92,1.92,0,0,1,.415.9,2.054,2.054,0,0,1-.415.977,9.213,9.213,0,0,1-1.177,1.4A15.7,15.7,0,0,1,21.567,12.3a16.707,16.707,0,0,1-2.358,1.44,14.474,14.474,0,0,1-2.778,1.06A11.743,11.743,0,0,1,13.35,15.205Zm0-1.357a5.317,5.317,0,0,0,2.129-.43A5.558,5.558,0,0,0,18.4,10.483a5.286,5.286,0,0,0,.425-2.1,5.421,5.421,0,0,0-1.6-3.882A5.5,5.5,0,0,0,8.276,6.24a5.452,5.452,0,0,0,.01,4.243,5.572,5.572,0,0,0,2.92,2.935A5.33,5.33,0,0,0,13.35,13.848Zm0-3.652a1.769,1.769,0,0,1-1.3-.537,1.8,1.8,0,0,1,0-2.563,1.839,1.839,0,0,1,2.588,0,1.8,1.8,0,0,1,0,2.563A1.758,1.758,0,0,1,13.35,10.2Z" fill="rgba(0,0,0,0.5)"/>
</svg>
