<svg id="list.bullet.rectangle.fill" xmlns="http://www.w3.org/2000/svg" width="60" height="46.845" viewBox="0 0 60 46.845">
  <rect id="Rectangle_280" data-name="Rectangle 280" width="60" height="46.845" fill="#00620c" opacity="0"/>
  <path id="Path_116" data-name="Path 116" d="M11.5,13.664a2.3,2.3,0,0,1-1.692-.738,2.361,2.361,0,0,1-.725-1.7A2.455,2.455,0,0,1,11.5,8.779a2.408,2.408,0,0,1,1.756.7,2.344,2.344,0,0,1,.712,1.743A2.454,2.454,0,0,1,11.5,13.664Zm0,8.015a2.319,2.319,0,0,1-1.692-.725,2.4,2.4,0,0,1,0-3.435,2.319,2.319,0,0,1,1.692-.725,2.386,2.386,0,0,1,1.756.712,2.457,2.457,0,0,1,0,3.461A2.386,2.386,0,0,1,11.5,21.679Zm0,7.99a2.326,2.326,0,0,1-1.7-.712,2.411,2.411,0,0,1,0-3.422,2.306,2.306,0,0,1,1.7-.725,2.386,2.386,0,0,1,1.756.712,2.326,2.326,0,0,1,.712,1.7,2.356,2.356,0,0,1-.712,1.73A2.386,2.386,0,0,1,11.5,29.669Zm0,8.422a2.319,2.319,0,0,1-1.692-.725,2.347,2.347,0,0,1-.725-1.718,2.389,2.389,0,0,1,.725-1.73,2.3,2.3,0,0,1,1.692-.738,2.365,2.365,0,0,1,1.756.725,2.4,2.4,0,0,1,.712,1.743,2.356,2.356,0,0,1-.712,1.73A2.386,2.386,0,0,1,11.5,38.092Zm7.914-25.267a1.616,1.616,0,0,1-1.17-.471,1.524,1.524,0,0,1-.483-1.132,1.624,1.624,0,0,1,.483-1.2,1.594,1.594,0,0,1,1.17-.483h30a1.6,1.6,0,0,1,1.171.483,1.625,1.625,0,0,1,.483,1.2,1.544,1.544,0,0,1-.471,1.132,1.6,1.6,0,0,1-1.183.471Zm0,8.041a1.594,1.594,0,0,1-1.17-.483,1.565,1.565,0,0,1-.483-1.145,1.651,1.651,0,0,1,1.654-1.654H36.031a1.565,1.565,0,0,1,1.145.483,1.594,1.594,0,0,1,.483,1.17,1.651,1.651,0,0,1-1.629,1.629Zm0,8.041a1.594,1.594,0,0,1-1.17-.484,1.624,1.624,0,0,1-.483-1.2,1.524,1.524,0,0,1,.483-1.132,1.616,1.616,0,0,1,1.17-.471h30a1.6,1.6,0,0,1,1.183.471,1.544,1.544,0,0,1,.471,1.132,1.647,1.647,0,0,1-.471,1.2,1.582,1.582,0,0,1-1.183.484Zm0,8.4a1.65,1.65,0,0,1-1.654-1.654,1.553,1.553,0,0,1,.483-1.158,1.616,1.616,0,0,1,1.17-.471H36.031a1.608,1.608,0,0,1,1.629,1.629,1.6,1.6,0,0,1-.483,1.171,1.566,1.566,0,0,1-1.145.483ZM7.99,46.845H52.01q4.02,0,6.005-1.972T60,38.982V7.888q0-3.919-1.985-5.9T52.01,0H7.99Q3.995,0,2,1.972T0,7.888V38.982Q0,42.9,2,44.873T7.99,46.845Z" transform="translate(0 0)" fill="#00620c"/>
</svg>
