<svg id="magnifyingglass" xmlns="http://www.w3.org/2000/svg" width="28.91" height="29.191" viewBox="0 0 28.91 29.191">
  <rect id="Rectangle_23" data-name="Rectangle 23" width="28.91" height="29.191" fill="#076713" opacity="0"/>
  <path id="Path_5" data-name="Path 5" d="M0,11.807a11.489,11.489,0,0,0,.917,4.579,11.965,11.965,0,0,0,6.31,6.31,11.49,11.49,0,0,0,4.579.917,11.351,11.351,0,0,0,3.669-.592,12.2,12.2,0,0,0,3.2-1.627l7.279,7.294a1.787,1.787,0,0,0,1.258.5,1.7,1.7,0,0,0,.888-.229,1.6,1.6,0,0,0,.6-.629,1.846,1.846,0,0,0,.215-.888,1.758,1.758,0,0,0-.126-.666,1.632,1.632,0,0,0-.362-.547l-7.235-7.279a11.838,11.838,0,0,0,1.783-3.3,11.451,11.451,0,0,0,.644-3.847A11.49,11.49,0,0,0,22.7,7.227a11.965,11.965,0,0,0-6.31-6.31A11.489,11.489,0,0,0,11.807,0,11.489,11.489,0,0,0,7.227.917a11.965,11.965,0,0,0-6.31,6.31A11.489,11.489,0,0,0,0,11.807Zm2.53,0a9.071,9.071,0,0,1,.718-3.6A9.371,9.371,0,0,1,8.2,3.248a9.071,9.071,0,0,1,3.6-.718,9.071,9.071,0,0,1,3.6.718,9.242,9.242,0,0,1,2.952,2,9.494,9.494,0,0,1,2,2.959,8.991,8.991,0,0,1,.725,3.6,8.991,8.991,0,0,1-.725,3.6,9.413,9.413,0,0,1-4.949,4.949,8.991,8.991,0,0,1-3.6.725,8.991,8.991,0,0,1-3.6-.725,9.494,9.494,0,0,1-2.959-2,9.242,9.242,0,0,1-2-2.952A9.071,9.071,0,0,1,2.53,11.807Z" fill="#076713"/>
</svg>
