<svg id="square.and.pencil" xmlns="http://www.w3.org/2000/svg" width="19.321" height="20.638" viewBox="0 0 19.321 20.638">
  <rect id="Rectangle_314" data-name="Rectangle 314" width="19.321" height="20.638" opacity="0"/>
  <path id="Path_126" data-name="Path 126" d="M3.066,19.289H14.531a2.7,2.7,0,0,0,2.046-.757,3.161,3.161,0,0,0,.728-2.271V5.822L15.732,7.394v8.789a1.623,1.623,0,0,1-.361,1.147,1.138,1.138,0,0,1-.859.386H3.1a1.549,1.549,0,0,1-1.128-.386,1.534,1.534,0,0,1-.4-1.147V5.1a1.551,1.551,0,0,1,.4-1.152A1.537,1.537,0,0,1,3.1,3.556h8.9l1.572-1.572H3.066a3.151,3.151,0,0,0-2.295.757A3.048,3.048,0,0,0,0,5.011v11.25a3.048,3.048,0,0,0,.771,2.271A3.151,3.151,0,0,0,3.066,19.289ZM6.621,12.96l1.9-.83,9.121-9.111L16.309,1.7,7.2,10.812l-.879,1.836a.214.214,0,0,0,.054.249A.2.2,0,0,0,6.621,12.96ZM18.369,2.306l.7-.723A.858.858,0,0,0,19.321,1a.741.741,0,0,0-.249-.562L18.848.207A.676.676,0,0,0,18.306,0a.869.869,0,0,0-.562.254l-.713.7Z" fill="rgba(0,0,0,0.5)"/>
</svg>
