<svg id="trash" xmlns="http://www.w3.org/2000/svg" width="18.906" height="23.486" viewBox="0 0 18.906 23.486">
  <rect id="Rectangle_313" data-name="Rectangle 313" width="18.906" height="23.486" opacity="0"/>
  <path id="Path_125" data-name="Path 125" d="M4.98,21.748h8.955a2.273,2.273,0,0,0,2.4-2.3l.674-14.2h1.172a.682.682,0,0,0,.513-.22.73.73,0,0,0,.21-.522.706.706,0,0,0-.215-.518.694.694,0,0,0-.508-.215H.732a.7.7,0,0,0-.513.22A.7.7,0,0,0,0,4.5a.714.714,0,0,0,.22.522.7.7,0,0,0,.513.22H1.9l.674,14.209a2.367,2.367,0,0,0,.7,1.675A2.365,2.365,0,0,0,4.98,21.748Zm.137-1.475a.955.955,0,0,1-.7-.283,1.037,1.037,0,0,1-.3-.713L3.428,5.244H15.439l-.645,14.033a1.03,1.03,0,0,1-.3.718.976.976,0,0,1-.713.278ZM6.563,18.6A.6.6,0,0,0,7,18.442a.553.553,0,0,0,.166-.415l-.3-10.449a.53.53,0,0,0-.171-.41.688.688,0,0,0-.879,0,.516.516,0,0,0-.161.415l.293,10.439a.581.581,0,0,0,.176.42A.615.615,0,0,0,6.563,18.6Zm2.891,0a.653.653,0,0,0,.459-.161.538.538,0,0,0,.176-.415V7.588a.537.537,0,0,0-.176-.415.653.653,0,0,0-.459-.161A.639.639,0,0,0,9,7.173a.537.537,0,0,0-.176.415V18.027A.538.538,0,0,0,9,18.442.639.639,0,0,0,9.453,18.6Zm2.9,0a.6.6,0,0,0,.43-.156.581.581,0,0,0,.176-.42l.293-10.439a.523.523,0,0,0-.156-.415.617.617,0,0,0-.449-.161.6.6,0,0,0-.43.156.581.581,0,0,0-.176.42l-.293,10.439a.523.523,0,0,0,.156.415A.618.618,0,0,0,12.354,18.6ZM5.166,4.463H6.719V2.373a.872.872,0,0,1,.269-.664A.988.988,0,0,1,7.7,1.455h3.5a.988.988,0,0,1,.708.254.872.872,0,0,1,.269.664v2.09h1.553V2.275A2.175,2.175,0,0,0,13.071.61,2.484,2.484,0,0,0,11.3,0H7.588A2.484,2.484,0,0,0,5.815.61a2.175,2.175,0,0,0-.649,1.665Z" fill="rgba(0,0,0,0.5)"/>
</svg>
