<svg id="tray.and.arrow.down" xmlns="http://www.w3.org/2000/svg" width="50.884" height="49.783" viewBox="0 0 50.884 49.783">
  <g id="Group_1" data-name="Group 1">
    <rect id="Rectangle_8" data-name="Rectangle 8" width="50.664" height="49.783" fill="rgba(0,0,0,0)"/>
    <path id="Path_1" data-name="Path 1" d="M6.829,42.168H44.056a7.047,7.047,0,0,0,5.066-1.762,7.047,7.047,0,0,0,1.762-5.066V22.563a8.259,8.259,0,0,0-.22-2.423,6.6,6.6,0,0,0-.881-1.762L42.293,9.126A14.388,14.388,0,0,0,39.87,6.483a13.157,13.157,0,0,0-2.423-1.322A7.036,7.036,0,0,0,34.363,4.5H31.28V7.584h3.3a3.67,3.67,0,0,1,2.423.881c.661.661,1.322,1.1,1.983,1.762l7.71,9.692c.441.661.661.881.441,1.1a1.294,1.294,0,0,1-1.1.441H32.381a2.362,2.362,0,0,0-1.322.441c-.22.441-.441.661-.441,1.1h0a5.021,5.021,0,0,1-.661,2.423A7.6,7.6,0,0,1,28.2,27.409a4.7,4.7,0,0,1-2.643.661,4.7,4.7,0,0,1-2.643-.661,5.2,5.2,0,0,1-1.762-1.983A5.021,5.021,0,0,1,20.486,23h0a1.683,1.683,0,0,0-.441-1.1c-.22-.441-.661-.441-1.322-.441H5.066a1.294,1.294,0,0,1-1.1-.441c-.22-.22,0-.661.441-1.1l7.71-9.692a13.292,13.292,0,0,1,1.762-1.762A3.67,3.67,0,0,1,16.3,7.584h3.524V4.5h-3.3a7.356,7.356,0,0,0-3.3.661,7.734,7.734,0,0,0-2.2,1.762A31.39,31.39,0,0,0,8.591,9.566L1.1,18.818c-.441.661-.881,1.1-.881,1.762a6.139,6.139,0,0,0-.22,2.2V35.559a7.047,7.047,0,0,0,1.762,5.066A7.7,7.7,0,0,0,6.829,42.168Zm0-3.524a2.745,2.745,0,0,1-2.423-.881,3.217,3.217,0,0,1-.881-2.643V24.325H17.182A9.732,9.732,0,0,0,18.5,27.849a6.091,6.091,0,0,0,2.864,2.423,7.544,7.544,0,0,0,3.965.881,7.544,7.544,0,0,0,3.965-.881,10.43,10.43,0,0,0,2.864-2.423,6.915,6.915,0,0,0,1.322-3.524H47.14V35.119a3.511,3.511,0,0,1-.881,2.643,3.009,3.009,0,0,1-2.423.881Z" transform="translate(0 5.413)" fill="#7fa1ce"/>
  </g>
  <path id="Path_2" data-name="Path 2" d="M16.431,27.654a.809.809,0,0,0,.661-.22c.22,0,.441-.22.661-.441l7.269-7.049c.22-.441.441-.661.441-1.1a1.558,1.558,0,0,0-2.643-1.1l-3.3,3.524-1.542,1.542.22-3.3V2.542a1.683,1.683,0,0,0-.441-1.1A3.131,3.131,0,0,0,16.431,1a1.683,1.683,0,0,0-1.1.441c-.441.22-.441.661-.441,1.1V19.5l.22,3.3-1.542-1.542-3.3-3.3A1.9,1.9,0,0,0,8.942,17.3a1.683,1.683,0,0,0-1.1.441,1.6,1.6,0,0,0,0,2.2l7.269,7.049c.22.22.441.441.661.441S16.211,27.654,16.431,27.654Z" transform="translate(8.901 1.203)" fill="#f27254"/>
</svg>
